<svg width="53" height="45" viewBox="0 0 53 45" fill="none" xmlns="http://www.w3.org/2000/svg">
<g filter="url(#filter0_dddddddd)">
<mask id="path-1-inside-1" fill="white">
<path fill-rule="evenodd" clip-rule="evenodd" d="M21.6157 8.7914C21.6157 11.6672 20.2981 14.2206 18.2611 15.8245H24.9702C22.9332 14.2206 21.6157 11.6672 21.6157 8.7914C21.6157 3.93604 25.3713 0 30.0041 0C34.6369 0 38.3925 3.93604 38.3925 8.7914C38.3925 11.6672 37.0749 14.2206 35.0379 15.8245H40.0702V22.0319L48.8866 14.9209L49 37L40.0702 29.9567V36.9239H4V15.8245H8.19339C6.1564 14.2206 4.83884 11.6672 4.83884 8.7914C4.83884 3.93604 8.59446 0 13.2273 0C17.86 0 21.6157 3.93604 21.6157 8.7914Z"/>
</mask>
<path fill-rule="evenodd" clip-rule="evenodd" d="M21.6157 8.7914C21.6157 11.6672 20.2981 14.2206 18.2611 15.8245H24.9702C22.9332 14.2206 21.6157 11.6672 21.6157 8.7914C21.6157 3.93604 25.3713 0 30.0041 0C34.6369 0 38.3925 3.93604 38.3925 8.7914C38.3925 11.6672 37.0749 14.2206 35.0379 15.8245H40.0702V22.0319L48.8866 14.9209L49 37L40.0702 29.9567V36.9239H4V15.8245H8.19339C6.1564 14.2206 4.83884 11.6672 4.83884 8.7914C4.83884 3.93604 8.59446 0 13.2273 0C17.86 0 21.6157 3.93604 21.6157 8.7914Z" fill="url(#paint0_linear)"/>
<path d="M18.2611 15.8245L17.6425 15.0389L15.3747 16.8245H18.2611V15.8245ZM24.9702 15.8245V16.8245H27.8566L25.5889 15.0389L24.9702 15.8245ZM35.0379 15.8245L34.4193 15.0389L32.1515 16.8245H35.0379V15.8245ZM40.0702 15.8245H41.0702V14.8245H40.0702V15.8245ZM40.0702 22.0319H39.0702V24.1232L40.698 22.8103L40.0702 22.0319ZM48.8866 14.9209L49.8866 14.9158L49.8759 12.8383L48.2588 14.1426L48.8866 14.9209ZM49 37L48.3807 37.7852L50.0106 39.0708L50 36.9949L49 37ZM40.0702 29.9567L40.6895 29.1715L39.0702 27.8943V29.9567H40.0702ZM40.0702 36.9239V37.9239H41.0702V36.9239H40.0702ZM4 36.9239H3V37.9239H4V36.9239ZM4 15.8245V14.8245H3V15.8245H4ZM8.19339 15.8245V16.8245H11.0798L8.81203 15.0389L8.19339 15.8245ZM18.8798 16.6102C21.1557 14.8181 22.6157 11.9761 22.6157 8.7914H20.6157C20.6157 11.3584 19.4405 13.623 17.6425 15.0389L18.8798 16.6102ZM24.9702 14.8245H18.2611V16.8245H24.9702V14.8245ZM25.5889 15.0389C23.7908 13.623 22.6157 11.3584 22.6157 8.7914H20.6157C20.6157 11.9761 22.0756 14.8181 24.3516 16.6102L25.5889 15.0389ZM22.6157 8.7914C22.6157 4.44359 25.9673 1 30.0041 1V-1C24.7753 -1 20.6157 3.4285 20.6157 8.7914H22.6157ZM30.0041 1C34.0409 1 37.3925 4.44359 37.3925 8.7914H39.3925C39.3925 3.4285 35.2328 -1 30.0041 -1V1ZM37.3925 8.7914C37.3925 11.3584 36.2173 13.623 34.4193 15.0389L35.6566 16.6102C37.9325 14.8181 39.3925 11.9761 39.3925 8.7914H37.3925ZM40.0702 14.8245H35.0379V16.8245H40.0702V14.8245ZM41.0702 22.0319V15.8245H39.0702V22.0319H41.0702ZM48.2588 14.1426L39.4424 21.2536L40.698 22.8103L49.5144 15.6993L48.2588 14.1426ZM50 36.9949L49.8866 14.9158L47.8866 14.9261L48 37.0051L50 36.9949ZM39.4509 30.7418L48.3807 37.7852L49.6193 36.2148L40.6895 29.1715L39.4509 30.7418ZM41.0702 36.9239V29.9567H39.0702V36.9239H41.0702ZM4 37.9239H40.0702V35.9239H4V37.9239ZM3 15.8245V36.9239H5V15.8245H3ZM8.19339 14.8245H4V16.8245H8.19339V14.8245ZM3.83884 8.7914C3.83884 11.9761 5.29882 14.8181 7.57474 16.6102L8.81203 15.0389C7.01398 13.623 5.83884 11.3584 5.83884 8.7914H3.83884ZM13.2273 -1C7.99847 -1 3.83884 3.4285 3.83884 8.7914H5.83884C5.83884 4.44359 9.19045 1 13.2273 1V-1ZM22.6157 8.7914C22.6157 3.4285 18.456 -1 13.2273 -1V1C17.2641 1 20.6157 4.44359 20.6157 8.7914H22.6157Z" fill="black" mask="url(#path-1-inside-1)"/>
</g>
<defs>
<filter id="filter0_dddddddd" x="0" y="0" width="53" height="45" filterUnits="userSpaceOnUse" color-interpolation-filters="sRGB">
<feFlood flood-opacity="0" result="BackgroundImageFix"/>
<feColorMatrix in="SourceAlpha" type="matrix" values="0 0 0 0 0 0 0 0 0 0 0 0 0 0 0 0 0 0 127 0"/>
<feOffset dy="4"/>
<feGaussianBlur stdDeviation="2"/>
<feColorMatrix type="matrix" values="0 0 0 0 0 0 0 0 0 0 0 0 0 0 0 0 0 0 0.25 0"/>
<feBlend mode="normal" in2="BackgroundImageFix" result="effect1_dropShadow"/>
<feColorMatrix in="SourceAlpha" type="matrix" values="0 0 0 0 0 0 0 0 0 0 0 0 0 0 0 0 0 0 127 0"/>
<feOffset dy="4"/>
<feGaussianBlur stdDeviation="2"/>
<feColorMatrix type="matrix" values="0 0 0 0 0 0 0 0 0 0 0 0 0 0 0 0 0 0 0.25 0"/>
<feBlend mode="normal" in2="effect1_dropShadow" result="effect2_dropShadow"/>
<feColorMatrix in="SourceAlpha" type="matrix" values="0 0 0 0 0 0 0 0 0 0 0 0 0 0 0 0 0 0 127 0"/>
<feOffset dy="4"/>
<feGaussianBlur stdDeviation="2"/>
<feColorMatrix type="matrix" values="0 0 0 0 0 0 0 0 0 0 0 0 0 0 0 0 0 0 0.25 0"/>
<feBlend mode="normal" in2="effect2_dropShadow" result="effect3_dropShadow"/>
<feColorMatrix in="SourceAlpha" type="matrix" values="0 0 0 0 0 0 0 0 0 0 0 0 0 0 0 0 0 0 127 0"/>
<feOffset dy="4"/>
<feGaussianBlur stdDeviation="2"/>
<feColorMatrix type="matrix" values="0 0 0 0 0 0 0 0 0 0 0 0 0 0 0 0 0 0 0.25 0"/>
<feBlend mode="normal" in2="effect3_dropShadow" result="effect4_dropShadow"/>
<feColorMatrix in="SourceAlpha" type="matrix" values="0 0 0 0 0 0 0 0 0 0 0 0 0 0 0 0 0 0 127 0"/>
<feOffset dy="4"/>
<feGaussianBlur stdDeviation="2"/>
<feColorMatrix type="matrix" values="0 0 0 0 0 0 0 0 0 0 0 0 0 0 0 0 0 0 0.25 0"/>
<feBlend mode="normal" in2="effect4_dropShadow" result="effect5_dropShadow"/>
<feColorMatrix in="SourceAlpha" type="matrix" values="0 0 0 0 0 0 0 0 0 0 0 0 0 0 0 0 0 0 127 0"/>
<feOffset dy="4"/>
<feGaussianBlur stdDeviation="2"/>
<feColorMatrix type="matrix" values="0 0 0 0 0 0 0 0 0 0 0 0 0 0 0 0 0 0 0.25 0"/>
<feBlend mode="normal" in2="effect5_dropShadow" result="effect6_dropShadow"/>
<feColorMatrix in="SourceAlpha" type="matrix" values="0 0 0 0 0 0 0 0 0 0 0 0 0 0 0 0 0 0 127 0"/>
<feOffset dy="4"/>
<feGaussianBlur stdDeviation="2"/>
<feColorMatrix type="matrix" values="0 0 0 0 0 0 0 0 0 0 0 0 0 0 0 0 0 0 0.25 0"/>
<feBlend mode="normal" in2="effect6_dropShadow" result="effect7_dropShadow"/>
<feColorMatrix in="SourceAlpha" type="matrix" values="0 0 0 0 0 0 0 0 0 0 0 0 0 0 0 0 0 0 127 0"/>
<feOffset dy="4"/>
<feGaussianBlur stdDeviation="2"/>
<feColorMatrix type="matrix" values="0 0 0 0 0 0 0 0 0 0 0 0 0 0 0 0 0 0 0.25 0"/>
<feBlend mode="normal" in2="effect7_dropShadow" result="effect8_dropShadow"/>
<feBlend mode="normal" in="SourceGraphic" in2="effect8_dropShadow" result="shape"/>
</filter>
<linearGradient id="paint0_linear" x1="30.0041" y1="0" x2="30.0041" y2="17.5828" gradientUnits="userSpaceOnUse">
<stop stop-color="white"/>
<stop offset="1" stop-color="white" stop-opacity="0"/>
</linearGradient>
</defs>
</svg>
