<svg width="25" height="25" viewBox="0 0 25 25" fill="none" xmlns="http://www.w3.org/2000/svg">
<path fill-rule="evenodd" clip-rule="evenodd" d="M13 2C12.1029 2 11.2334 2.11813 10.4062 2.33968C9.51338 1.50847 8.31607 1 7 1C4.23858 1 2 3.23858 2 6C2 7.31607 2.50847 8.51338 3.33968 9.40621C3.11813 10.2334 3 11.1029 3 12C3 17.5228 7.47715 22 13 22C13.8971 22 14.7666 21.8819 15.5938 21.6603C16.4866 22.4915 17.6839 23 19 23C21.7614 23 24 20.7614 24 18C24 16.6839 23.4915 15.4866 22.6603 14.5938C22.8819 13.7666 23 12.8971 23 12C23 6.47715 18.5228 2 13 2Z" fill="black"/>
<path d="M13.212 17.234C15.516 17.234 16.776 15.92 16.776 14.336C16.776 12.482 15.21 11.906 13.788 11.366C12.69 10.952 11.682 10.61 11.682 9.674C11.682 8.918 12.258 8.27 13.5 8.27C14.364 8.27 15.048 8.63 15.714 9.134L16.506 8.072C15.75 7.478 14.688 6.974 13.482 6.974C11.358 6.974 10.098 8.198 10.098 9.746C10.098 11.402 11.592 12.068 12.96 12.572C14.04 12.986 15.192 13.418 15.192 14.426C15.192 15.272 14.562 15.956 13.266 15.956C12.096 15.956 11.214 15.488 10.368 14.804L9.558 15.884C10.494 16.658 11.826 17.234 13.212 17.234Z" fill="white"/>
</svg>
