<svg width="25" height="26" viewBox="0 0 25 26" fill="none" xmlns="http://www.w3.org/2000/svg">
<path fill-rule="evenodd" clip-rule="evenodd" d="M12.5 21C20.495 21 22 18.9632 22 11.5C22 4.03677 20.495 2 12.5 2C4.50502 2 3 4.03677 3 11.5C3 18.0883 4.17285 20.4479 9.94788 20.9106L9.91858 24.2385L12.0029 20.9973C12.1657 20.9991 12.3314 21 12.5 21Z" fill="black"/>
<path d="M9.94788 20.9106L10.9478 20.9194C10.9525 20.3947 10.5508 19.9557 10.0277 19.9138L9.94788 20.9106ZM9.91858 24.2385L8.91862 24.2296C8.9147 24.675 9.20575 25.0692 9.63249 25.1967C10.0592 25.3241 10.5188 25.1539 10.7597 24.7793L9.91858 24.2385ZM12.0029 20.9973L12.0142 19.9973C11.67 19.9934 11.3479 20.1668 11.1618 20.4564L12.0029 20.9973ZM21 11.5C21 15.2686 20.5909 17.2406 19.5245 18.3585C18.4709 19.463 16.5104 20 12.5 20V22C16.4845 22 19.2741 21.5186 20.9717 19.7389C22.6566 17.9726 23 15.1947 23 11.5H21ZM12.5 3C16.5104 3 18.4709 3.53701 19.5245 4.64152C20.5909 5.75941 21 7.73144 21 11.5H23C23 7.80533 22.6566 5.02737 20.9717 3.26106C19.2741 1.48138 16.4845 1 12.5 1V3ZM4 11.5C4 7.73144 4.40911 5.75941 5.47547 4.64152C6.52908 3.53701 8.48956 3 12.5 3V1C8.51546 1 5.72594 1.48138 4.0283 3.26106C2.3434 5.02737 2 7.80533 2 11.5H4ZM10.0277 19.9138C7.23411 19.69 5.88568 19.0278 5.13141 17.9345C4.313 16.7483 4 14.8109 4 11.5H2C2 14.7775 2.27343 17.314 3.4852 19.0703C4.76111 20.9196 6.88662 21.6685 9.86802 21.9074L10.0277 19.9138ZM10.9185 24.2473L10.9478 20.9194L8.94792 20.9018L8.91862 24.2296L10.9185 24.2473ZM11.1618 20.4564L9.07748 23.6976L10.7597 24.7793L12.844 21.5381L11.1618 20.4564ZM12.5 20C12.335 20 12.1731 19.9991 12.0142 19.9973L11.9915 21.9972C12.1584 21.9991 12.3278 22 12.5 22V20Z" fill="black"/>
<path d="M12.5 15.3483C17.5 16.3483 16.0899 18.3483 12.5 18.3483C8.91015 18.3483 6 15.4381 6 11.8483C6 8.25842 8 7.84827 9.5 11.8483C6 13.8483 11 18.3483 12.5 15.3483Z" fill="white"/>
<path d="M11.5139 4.56346C11.4712 4.23739 11.701 3.93597 12.0295 3.9193C13.0054 3.86976 13.9836 4.01135 14.9086 4.3382C16.0211 4.73133 17.0251 5.38139 17.8391 6.23555C18.6531 7.08972 19.2541 8.12388 19.5932 9.254C19.8752 10.1936 19.9695 11.1775 19.8731 12.1499C19.8406 12.4772 19.5285 12.6922 19.2048 12.6339C18.8812 12.5756 18.6691 12.2659 18.6966 11.9382C18.7628 11.1509 18.6807 10.3564 18.4526 9.59629C18.1673 8.64561 17.6617 7.77566 16.977 7.05713C16.2922 6.33859 15.4476 5.79175 14.5118 5.46105C13.7635 5.19663 12.9739 5.07635 12.1843 5.10458C11.8557 5.11632 11.5565 4.88954 11.5139 4.56346Z" fill="white"/>
<path d="M11.0305 8.20479C10.9903 7.89767 11.2071 7.6128 11.5167 7.60724C12.1128 7.59655 12.7075 7.69251 13.2724 7.89214C14.014 8.15422 14.6834 8.5876 15.2261 9.15704C15.7687 9.72648 16.1694 10.4159 16.3955 11.1693C16.5677 11.7432 16.6349 12.3418 16.5955 12.9366C16.5751 13.2457 16.2801 13.4485 15.9753 13.3936C15.6704 13.3386 15.4722 13.0465 15.4826 12.7369C15.4967 12.3171 15.4426 11.8965 15.3211 11.4917C15.1458 10.9073 14.835 10.3725 14.4141 9.93085C13.9931 9.48915 13.4739 9.153 12.8987 8.94971C12.5002 8.80891 12.0827 8.7346 11.6627 8.72851C11.353 8.72402 11.0707 8.51191 11.0305 8.20479Z" fill="white"/>
</svg>
