<svg width="128" height="36" viewBox="0 0 128 36" fill="none" xmlns="http://www.w3.org/2000/svg">
<g filter="url(#filter0_d)">
<path d="M7.31127 20.2576C7.55613 21.2472 7.79516 22.0006 8.02837 22.5179C8.07501 22.6359 8.12748 22.7596 8.18578 22.889C8.24408 23.0126 8.28489 23.1363 8.30821 23.26C8.33736 23.4906 8.23825 23.6677 8.01088 23.7914C7.7835 23.9094 7.51241 23.991 7.19758 24.036C6.88859 24.0809 6.63207 24.0894 6.42801 24.0613C6.22979 24.0331 6.06363 23.9882 5.92954 23.9263C5.68468 23.8307 5.48937 23.6649 5.34362 23.4287C5.19787 23.1926 5.08127 22.962 4.99382 22.7371C4.81309 22.3042 4.65276 21.7476 4.51284 21.0672C4.37292 20.3869 4.25923 19.6813 4.17178 18.9503C4.08433 18.2138 4.02894 17.5053 4.00562 16.825C3.98813 16.1391 4.01145 15.5796 4.07558 15.1467C4.12805 14.7756 4.2155 14.4607 4.33794 14.2021C4.41956 14.0278 4.5449 13.8928 4.71397 13.7972C4.90054 13.7017 5.05212 13.6398 5.16872 13.6117C5.29115 13.578 5.46022 13.5611 5.67594 13.5611C5.99076 13.5667 6.23854 13.6229 6.41927 13.7298C6.60583 13.831 6.69037 14.0671 6.67288 14.4382C6.61458 15.6752 6.70786 16.9684 6.95272 18.3178C7.71646 18.2222 8.45979 18.1294 9.18272 18.0395C9.91148 17.9495 10.4828 17.8849 10.8968 17.8455C10.8676 17.2439 10.8589 16.6704 10.8705 16.125C10.888 15.574 10.9317 15.1073 11.0017 14.725C11.0425 14.4888 11.1096 14.2442 11.2028 13.9912C11.2961 13.7326 11.4535 13.5302 11.6751 13.384C11.7917 13.3053 11.9986 13.2266 12.296 13.1478C12.5991 13.0691 12.8527 13.0213 13.0568 13.0045C13.2667 12.9876 13.4941 13.0185 13.7389 13.0972C13.9838 13.176 14.1179 13.3306 14.1412 13.5611C14.1412 13.6904 14.1266 13.8225 14.0975 13.9575C14.0683 14.0924 14.0421 14.2218 14.0188 14.3454C13.7622 15.5318 13.6835 16.8812 13.7826 18.3937C13.8818 19.9006 14.0916 21.2697 14.4123 22.501C14.4997 22.8608 14.4618 23.111 14.2986 23.2516C14.1412 23.3922 13.9109 23.4906 13.6077 23.5468C13.3979 23.5862 13.2142 23.6115 13.0568 23.6227C12.8994 23.6339 12.7187 23.6086 12.5146 23.5468C12.3339 23.4962 12.1823 23.3865 12.0599 23.2179C11.8908 22.993 11.7421 22.7006 11.6139 22.3408C11.4331 21.8403 11.2407 20.9857 11.0367 19.7769C10.5994 19.9118 9.97852 20.0214 9.17397 20.1058C8.36942 20.1845 7.74852 20.2351 7.31127 20.2576Z" fill="black"/>
<path d="M14.9457 20.1311C15.2372 19.5913 15.555 19.1612 15.899 18.8407C16.033 18.717 16.1205 18.6383 16.1613 18.6045C16.7093 18.1379 17.3331 17.8174 18.0328 17.6431C18.6216 17.4913 19.1959 17.4885 19.7555 17.6347C20.0179 17.7134 20.2802 17.8511 20.5426 18.0479C20.805 18.2391 21.0032 18.4527 21.1373 18.6889C21.283 18.9588 21.3734 19.2961 21.4084 19.701C21.4608 20.2969 21.4054 20.8339 21.2422 21.3118C21.1373 21.6042 20.9857 21.8881 20.7875 22.1636C20.5951 22.4335 20.3939 22.6781 20.184 22.8974C19.8692 23.2179 19.5107 23.4934 19.1084 23.7239C18.712 23.9488 18.2805 24.0809 17.8141 24.1203C17.3302 24.154 16.8755 24.1006 16.4499 23.9601C16.1117 23.8476 15.7998 23.6958 15.5142 23.5046C15.2343 23.3078 15.0186 23.0548 14.867 22.7456C14.7096 22.4476 14.6222 22.099 14.6047 21.6998C14.5814 21.1319 14.695 20.609 14.9457 20.1311ZM16.5548 20.7468C16.4091 21.1741 16.5082 21.6154 16.8522 22.0709C17.202 22.5263 17.6771 22.6331 18.2776 22.3914C18.6507 22.2395 18.9218 22.0259 19.0909 21.7504C19.26 21.4693 19.3474 21.1769 19.3533 20.8733C19.3649 20.1817 18.9772 19.7656 18.1902 19.625C17.4031 19.4845 16.858 19.8584 16.5548 20.7468Z" fill="black"/>
<path d="M29.0428 19.4226C28.6289 19.552 28.4423 20.1423 28.4831 21.1937C28.5414 21.5873 28.5677 22.0484 28.5618 22.5769C28.556 23.1054 28.4482 23.558 28.2383 23.9348C28.1625 24.0641 28.0576 24.1372 27.9235 24.154C27.6903 24.1878 27.4483 24.1568 27.1976 24.0613C26.9469 23.9601 26.7604 23.8476 26.6379 23.7239C26.5855 23.6789 26.5505 23.6227 26.533 23.5552C26.498 23.4653 26.4893 23.3669 26.5068 23.26C26.5301 23.1532 26.5534 23.052 26.5767 22.9564C26.6642 22.6078 26.7108 22.2592 26.7166 21.9106C26.7225 21.5564 26.7137 21.2162 26.6904 20.8901C26.6204 20.5584 26.5126 20.2885 26.3668 20.0805C26.0578 19.5744 25.7343 19.3158 25.3961 19.3046C25.0638 19.2933 24.8306 19.5154 24.6965 19.9708C24.5857 20.3363 24.5333 20.803 24.5391 21.3709V21.4299C24.5741 21.9022 24.6295 22.352 24.7053 22.7793C24.7286 22.8749 24.7636 23.0211 24.8102 23.2179C24.8685 23.4484 24.8656 23.6002 24.8015 23.6733C24.784 23.6902 24.7665 23.707 24.749 23.7239C24.6965 23.8307 24.6091 23.9151 24.4866 23.9769C24.2942 24.0725 24.0785 24.1259 23.8395 24.1372C23.6588 24.1428 23.4809 24.1344 23.306 24.1119C23.2244 24.1175 23.1486 24.1175 23.0787 24.1119C22.9854 24.1062 22.9038 24.0725 22.8338 24.0107C22.7464 23.9825 22.6764 23.9516 22.6239 23.9179C22.4549 23.7998 22.3324 23.6283 22.2566 23.4034C22.1867 23.1729 22.1342 22.948 22.0992 22.7287C22.0351 22.3126 22.0001 21.7813 21.9943 21.1347C21.9885 20.4881 22.0089 19.8218 22.0555 19.1359C22.108 18.4443 22.2508 17.9608 22.484 17.6853C22.5831 17.5166 22.7026 17.4013 22.8426 17.3395C22.9941 17.2664 23.1749 17.2242 23.3848 17.213C23.5946 17.1961 23.7812 17.1961 23.9444 17.213C24.1835 17.2411 24.3642 17.3142 24.4866 17.4322C24.6149 17.5503 24.6499 17.7668 24.5916 18.0817C24.8598 17.823 25.1979 17.6824 25.606 17.66C26.0141 17.6318 26.4514 17.7837 26.9178 18.1154C27.0402 18.2053 27.1568 18.3009 27.2676 18.4021C27.5824 17.9298 28.2558 17.6684 29.2877 17.6178C29.7249 17.6403 30.1768 17.8174 30.6432 18.1491C31.1387 18.5033 31.5031 18.9644 31.7363 19.5323C31.9695 20.0945 32.1269 20.6596 32.2086 21.2275C32.2669 21.6211 32.2931 22.0821 32.2873 22.6106C32.2814 23.1392 32.1736 23.5918 31.9637 23.9685C31.8879 24.0978 31.783 24.1709 31.6489 24.1878C31.4157 24.2215 31.1737 24.1906 30.923 24.095C30.6723 23.9938 30.4858 23.8813 30.3633 23.7576C30.3109 23.7127 30.2759 23.6564 30.2584 23.589C30.2234 23.499 30.2147 23.4006 30.2322 23.2938C30.2555 23.1869 30.2788 23.0857 30.3021 22.9902C30.3896 22.6416 30.4362 22.293 30.442 21.9444C30.4479 21.5901 30.4391 21.25 30.4158 20.9239C30.3458 20.5921 30.238 20.3222 30.0922 20.1142C29.8066 19.5238 29.4568 19.2933 29.0428 19.4226Z" fill="black"/>
<path d="M34.7009 21.2443C34.7184 21.3006 34.7388 21.3624 34.7621 21.4299C34.9137 21.8403 35.2489 22.1524 35.7678 22.3661C36.2925 22.5797 36.791 22.6612 37.2632 22.6106C37.6363 22.5825 38.0095 22.3801 38.3826 22.0034C38.7615 21.6267 39.2484 21.6492 39.843 22.0709C40.1054 22.2339 40.0821 22.4926 39.7731 22.8468C39.4641 23.201 39.2192 23.44 39.0385 23.5637C38.916 23.648 38.7907 23.7211 38.6624 23.7829C38.3243 23.9516 37.9832 24.0528 37.6393 24.0866C37.2953 24.1147 36.9571 24.1119 36.6248 24.0781C36.1701 24.0388 35.7328 23.9404 35.3131 23.7829C34.9866 23.6592 34.6718 23.4962 34.3686 23.2938C34.0713 23.0914 33.8089 22.8412 33.5815 22.5432C33.1559 21.9978 32.8703 21.3933 32.7245 20.7299C32.4971 19.7066 32.7595 18.8519 33.5116 18.166C33.8905 17.8174 34.3161 17.5588 34.7884 17.3901C35.2664 17.2158 35.8349 17.0865 36.4937 17.0021C37.1525 16.9178 37.82 17.0471 38.4963 17.3901C39.1784 17.7274 39.6011 18.2166 39.7643 18.8576C39.9276 19.4985 39.9567 19.9455 39.8518 20.1985C39.7468 20.4516 39.5661 20.6118 39.3096 20.6793C39.0589 20.7468 37.5227 20.9351 34.7009 21.2443ZM38.3913 19.4985C38.1465 18.9813 37.7034 18.7423 37.0621 18.7817C36.4208 18.8154 35.9223 18.8941 35.5667 19.0178C35.211 19.1415 34.9487 19.4114 34.7796 19.8275C34.7621 19.8556 34.7475 19.8809 34.7359 19.9034L38.3913 19.4985Z" fill="black"/>
<path d="M46.6992 18.4359L47.4338 18.925C47.4571 18.9363 47.4775 18.9475 47.495 18.9588C48.0838 19.3017 48.4919 19.7094 48.7193 20.1817C48.9525 20.654 48.9554 21.1853 48.728 21.7757C48.4948 22.3661 48.0751 22.8637 47.4687 23.2685C47.0723 23.5384 46.5913 23.7323 46.0258 23.8504C45.4603 23.9629 44.8744 24.005 44.268 23.9769C44.2622 23.9825 44.2593 23.9854 44.2593 23.9854V23.9938C43.5014 23.9488 43.1399 23.8982 43.1749 23.842C42.9009 23.7858 42.6677 23.7295 42.4753 23.6733L41.1111 23.0661C40.8429 22.903 40.6097 22.7175 40.4115 22.5094C40.4056 22.4982 40.3969 22.4897 40.3852 22.4841C40.3794 22.4785 40.3765 22.4673 40.3765 22.4504C40.3648 22.4504 40.3532 22.4448 40.3415 22.4335C40.3357 22.4223 40.3327 22.4138 40.3327 22.4082C40.2278 22.2901 40.1695 22.1636 40.1578 22.0287V21.9697C40.1637 21.7954 40.1753 21.5845 40.1928 21.3371C40.2045 21.0897 40.2453 20.8873 40.3153 20.7299C40.391 20.55 40.5018 20.4937 40.6476 20.5612C40.7992 20.6231 40.9245 20.6961 41.0236 20.7805C41.0353 20.7974 41.0469 20.8086 41.0586 20.8142C41.0703 20.8198 41.0819 20.8283 41.0936 20.8395C41.3443 21.0476 41.6299 21.2275 41.9506 21.3793C42.6677 21.711 43.5364 21.8685 44.5566 21.8516C44.5916 21.8347 44.6441 21.8066 44.714 21.7672C44.9414 21.6436 44.9939 21.4721 44.8715 21.2528C44.8598 21.2472 44.851 21.2387 44.8452 21.2275C44.8394 21.2162 44.8336 21.2022 44.8277 21.1853C44.7636 21.1122 44.1544 20.7664 43 20.1479C41.8981 19.417 41.2656 18.9307 41.1023 18.6889C40.7117 18.1266 40.5951 17.5644 40.7525 17.0021C40.9099 16.4342 41.2568 15.9423 41.7932 15.5262C42.7318 14.784 44.236 14.5141 46.3056 14.7165C46.5563 14.7896 46.7808 14.8627 46.979 14.9358C47.049 14.9639 47.1568 15.0117 47.3026 15.0792C47.4367 15.1523 47.597 15.231 47.7836 15.3153C48.0109 15.4109 48.1042 15.5149 48.0634 15.6274C48.0751 15.6443 48.0896 15.6639 48.1071 15.6864C48.2296 15.8439 48.3258 16.0575 48.3957 16.3274C48.4657 16.5973 48.4074 16.8109 48.2208 16.9684C48.2033 16.9852 48.1917 16.9965 48.1858 17.0021C48.0226 17.1202 47.7952 17.1455 47.5037 17.078C47.1831 16.9937 46.8712 16.9234 46.568 16.8672L46.0608 16.7407C45.4078 16.662 44.9298 16.6226 44.6266 16.6226C44.0144 16.8194 44.1573 17.1989 45.0551 17.7612C45.1309 17.8286 45.6789 18.0535 46.6992 18.4359Z" fill="black"/>
<path d="M50.6695 17.3395C50.6986 16.8334 50.7452 16.4146 50.8094 16.0828C50.8793 15.7398 50.961 15.4728 51.0542 15.2816C51.13 15.1186 51.2204 15.0089 51.3253 14.9527C51.4653 14.8852 51.6635 14.8402 51.92 14.8177C52.1765 14.7953 52.3777 14.7924 52.5234 14.8093C52.7275 14.8374 52.8878 14.9077 53.0044 15.0202C53.1268 15.127 53.1706 15.3435 53.1356 15.6696C53.0773 16.1925 53.0335 16.7407 53.0044 17.3142C53.1443 17.3198 53.2842 17.3282 53.4242 17.3395C53.6515 17.362 53.8789 17.4069 54.1063 17.4744C54.3336 17.5363 54.5173 17.6234 54.6572 17.7359C54.7563 17.8202 54.8321 17.958 54.8846 18.1491C54.9312 18.3178 54.9487 18.5118 54.9371 18.7311C54.9196 18.9391 54.8846 19.1078 54.8321 19.2371C54.768 19.3833 54.6864 19.4536 54.5873 19.4479C54.5406 19.4479 54.4911 19.4395 54.4386 19.4226C54.3978 19.417 54.3395 19.4001 54.2637 19.372C53.9139 19.2596 53.5174 19.1921 53.0744 19.1696H52.9869C52.9869 19.2258 52.9898 19.2821 52.9956 19.3383C53.0306 20.6708 53.1706 21.8488 53.4154 22.8721C53.4387 22.9789 53.465 23.0914 53.4941 23.2094C53.5291 23.3219 53.5495 23.4343 53.5553 23.5468C53.5553 23.7548 53.4766 23.9038 53.3192 23.9938C53.1618 24.0837 52.9782 24.1344 52.7683 24.1456C52.5584 24.1568 52.3077 24.1456 52.0162 24.1119C51.7305 24.0725 51.544 24.0219 51.4565 23.9601C51.2991 23.8532 51.1796 23.693 51.098 23.4793C51.0163 23.26 50.9551 23.0464 50.9143 22.8383C50.8269 22.4448 50.7569 21.9415 50.7044 21.3287C50.6578 20.7158 50.6316 20.0833 50.6257 19.4311C50.6199 19.3242 50.617 19.2174 50.617 19.1106H50.5733C50.2293 19.1162 49.8911 19.1471 49.5588 19.2034C49.4714 19.2202 49.416 19.2287 49.3927 19.2287C49.3402 19.2287 49.2906 19.2202 49.244 19.2034C49.209 19.1865 49.174 19.1556 49.1391 19.1106C49.1157 19.0768 49.0924 19.0206 49.0691 18.9419C49.0283 18.8013 49.0108 18.6439 49.0166 18.4696C49.0166 18.2953 49.0341 18.1351 49.0691 17.9889C49.1041 17.8314 49.2149 17.7077 49.4014 17.6178C49.5064 17.5672 49.6259 17.5194 49.76 17.4744C49.8532 17.4519 49.9902 17.4238 50.171 17.3901C50.2468 17.3788 50.3809 17.362 50.5733 17.3395H50.6695Z" fill="black"/>
<path d="M61.1111 17.6515C61.2044 17.6796 61.2743 17.7106 61.321 17.7443C61.4959 17.8624 61.6183 18.0367 61.6883 18.2672C61.7641 18.4921 61.8195 18.7142 61.8544 18.9335C61.9186 19.3495 61.9535 19.8809 61.9594 20.5275C61.9652 21.1741 61.9419 21.8432 61.8894 22.5347C61.8428 23.2207 61.7028 23.7014 61.4696 23.9769C61.3705 24.1456 61.251 24.2609 61.1111 24.3227C60.9595 24.3958 60.7759 24.438 60.5602 24.4492C60.3503 24.4661 60.1637 24.4661 60.0005 24.4492C59.7673 24.4211 59.5865 24.348 59.4583 24.2299C59.33 24.1119 59.295 23.8954 59.3533 23.5805C58.8753 23.9348 58.4963 24.1006 58.2165 24.0781C57.7734 24.0556 57.3216 23.8785 56.861 23.5468C56.3654 23.1926 55.9981 22.7343 55.7591 22.1721C55.5259 21.6042 55.3685 21.0363 55.2869 20.4684C55.2344 20.0749 55.2111 19.6138 55.2169 19.0853C55.2227 18.5568 55.3277 18.1041 55.5317 17.7274C55.6075 17.5981 55.7154 17.525 55.8553 17.5081C56.0885 17.4744 56.3275 17.5081 56.5724 17.6094C56.8231 17.7049 57.0096 17.8146 57.1321 17.9383C57.1904 17.9833 57.2283 18.0395 57.2458 18.107C57.2807 18.1969 57.2866 18.2953 57.2633 18.4021C57.2458 18.509 57.2254 18.6102 57.202 18.7058C57.1146 19.0544 57.0679 19.4058 57.0621 19.76C57.0563 20.1086 57.0621 20.4459 57.0796 20.7721C57.1554 21.1038 57.2662 21.3737 57.4119 21.5817C57.7209 22.0877 58.0707 22.3464 58.4613 22.3576C58.8519 22.3689 59.1172 22.1468 59.2571 21.6913C59.3679 21.3259 59.4204 20.8592 59.4145 20.2913C59.4145 20.2745 59.4145 20.2548 59.4145 20.2323C59.3796 19.76 59.3242 19.3102 59.2484 18.8829C59.2251 18.7873 59.1901 18.6383 59.1435 18.4359C59.0851 18.211 59.0881 18.062 59.1522 17.9889C59.1697 17.972 59.1872 17.9551 59.2047 17.9383C59.2571 17.8314 59.3417 17.7471 59.4583 17.6853C59.6507 17.5897 59.8693 17.5363 60.1142 17.525C60.2949 17.5194 60.4727 17.5278 60.6476 17.5503C60.7292 17.5447 60.805 17.5447 60.875 17.5503C60.9624 17.5559 61.0411 17.5897 61.1111 17.6515Z" fill="black"/>
<path d="M64.1806 20.401C64.3963 19.9287 64.6733 19.6194 65.0114 19.4732C65.3554 19.3271 65.6819 19.3017 65.9909 19.3973C66.3057 19.4873 66.5651 19.6785 66.7692 19.9708C66.9732 20.2576 67.049 20.5921 66.9965 20.9745C66.9382 21.3174 66.8071 21.6323 66.603 21.9191C66.399 22.2058 66.0871 22.4082 65.6673 22.5263C65.0318 22.7062 64.5712 22.5122 64.2856 21.9444C64.0057 21.3709 63.9707 20.8564 64.1806 20.401ZM67.5125 23.1082C67.5591 23.2769 67.6204 23.4512 67.6962 23.6311C67.7778 23.8111 67.8944 23.946 68.046 24.036C68.1334 24.0866 68.2762 24.1287 68.4745 24.1625C68.6785 24.2018 68.8855 24.2159 69.0954 24.2046C69.3053 24.1934 69.486 24.1512 69.6376 24.0781C69.795 24.005 69.8737 23.8841 69.8737 23.7155C69.8679 23.6199 69.8504 23.5243 69.8212 23.4287C69.7921 23.3331 69.7629 23.2432 69.7338 23.1588C69.4947 22.3098 69.3548 21.3371 69.314 20.2407C69.279 19.1443 69.3694 17.3732 69.5851 14.9274C69.6201 14.6631 69.5793 14.486 69.4627 14.3961C69.3461 14.3061 69.1857 14.2499 68.9817 14.2274C68.8418 14.2105 68.6844 14.2077 68.5095 14.2189C68.3345 14.2302 68.183 14.2639 68.0547 14.3201C67.9439 14.3708 67.8507 14.4607 67.7749 14.59C67.6291 16.2206 67.5329 17.1146 67.4863 17.272C67.4513 17.2608 67.4192 17.2523 67.3901 17.2467C66.8187 17.0836 66.2182 17.0836 65.5886 17.2467C64.8657 17.4379 64.2185 17.778 63.6472 18.2672C63.5597 18.3403 63.4694 18.4218 63.3761 18.5118C63.1662 18.7142 62.9796 18.9307 62.8164 19.1612C62.659 19.3917 62.5161 19.6307 62.3879 19.8781C62.1314 20.3785 62.0148 20.9323 62.0381 21.5395C62.0556 21.9556 62.143 22.3211 62.3004 22.6359C62.4578 22.9564 62.6852 23.2207 62.9825 23.4287C63.2857 23.6368 63.6093 23.7998 63.9533 23.9179C64.408 24.0697 64.8802 24.1259 65.37 24.0866C65.8597 24.0416 66.3115 23.901 66.7254 23.6649C67.0111 23.5074 67.2735 23.3219 67.5125 23.1082Z" fill="black"/>
<path d="M70.206 22.0793C70.1419 21.2415 70.1535 20.3897 70.241 19.5238C70.3343 18.658 70.4771 18.0648 70.6695 17.7443C70.8677 17.4182 71.063 17.2636 71.2554 17.2804C71.4478 17.2917 71.6314 17.3114 71.8064 17.3395C71.9638 17.3732 72.0891 17.4041 72.1824 17.4322C72.2057 17.4379 72.2349 17.4519 72.2698 17.4744C72.2873 17.4857 72.3107 17.5081 72.3398 17.5419C72.3398 17.5419 72.366 17.5672 72.4185 17.6178C72.4302 17.629 72.4506 17.6571 72.4797 17.7021C72.4972 17.7246 72.5118 17.7584 72.5235 17.8033C72.5351 17.8596 72.5468 17.9158 72.5584 17.972C72.5584 17.9833 72.5672 18.0367 72.5847 18.1323C72.5905 18.1997 72.5526 18.7339 72.471 19.7347C72.3952 20.7299 72.4447 21.8881 72.6196 23.2094C72.6138 23.35 72.5963 23.4878 72.5672 23.6227C72.538 23.7576 72.5089 23.8504 72.4797 23.901C72.4273 23.9797 72.3194 24.0388 72.1562 24.0781C72.0804 24.095 71.9958 24.1062 71.9025 24.1119C71.8151 24.1119 71.7247 24.1091 71.6314 24.1034C71.4566 24.0978 71.27 24.0781 71.0718 24.0444C70.926 24.0219 70.7978 23.991 70.687 23.9516C70.6578 23.9348 70.6345 23.9207 70.617 23.9094C70.5995 23.9038 70.5733 23.8813 70.5383 23.842C70.5208 23.8307 70.4975 23.8054 70.4684 23.7661C70.4684 23.7717 70.4479 23.7436 70.4071 23.6817C70.3896 23.6705 70.3751 23.6368 70.3634 23.5805C70.3518 23.5412 70.3372 23.4849 70.3197 23.4119C70.3139 23.3556 70.276 22.9114 70.206 22.0793ZM71.5003 14.4382C71.8151 14.4382 72.0804 14.5394 72.2961 14.7418C72.5176 14.9443 72.6284 15.1916 72.6284 15.484C72.6284 15.7708 72.5176 16.0182 72.2961 16.2262C72.0804 16.4286 71.8151 16.5298 71.5003 16.5298C71.1971 16.5298 70.9348 16.4286 70.7132 16.2262C70.4975 16.0182 70.3896 15.7708 70.3896 15.484C70.3896 15.1916 70.4975 14.9443 70.7132 14.7418C70.9348 14.5394 71.1971 14.4382 71.5003 14.4382Z" fill="black"/>
<path d="M73.293 20.1311C73.5845 19.5913 73.9023 19.1612 74.2462 18.8407C74.3803 18.717 74.4678 18.6383 74.5086 18.6045C75.0566 18.1379 75.6804 17.8174 76.38 17.6431C76.9689 17.4913 77.5431 17.4885 78.1028 17.6347C78.3652 17.7134 78.6275 17.8511 78.8899 18.0479C79.1522 18.2391 79.3505 18.4527 79.4845 18.6889C79.6303 18.9588 79.7207 19.2961 79.7556 19.701C79.8081 20.2969 79.7527 20.8339 79.5895 21.3118C79.4845 21.6042 79.333 21.8881 79.1347 22.1636C78.9424 22.4335 78.7412 22.6781 78.5313 22.8974C78.2165 23.2179 77.858 23.4934 77.4557 23.7239C77.0592 23.9488 76.6278 24.0809 76.1614 24.1203C75.6775 24.154 75.2228 24.1006 74.7972 23.9601C74.459 23.8476 74.1471 23.6958 73.8615 23.5046C73.5816 23.3078 73.3659 23.0548 73.2143 22.7456C73.0569 22.4476 72.9695 22.099 72.952 21.6998C72.9286 21.1319 73.0423 20.609 73.293 20.1311ZM74.9021 20.7468C74.7564 21.1741 74.8555 21.6154 75.1994 22.0709C75.5493 22.5263 76.0244 22.6331 76.6249 22.3914C76.998 22.2395 77.2691 22.0259 77.4382 21.7504C77.6073 21.4693 77.6947 21.1769 77.7005 20.8733C77.7122 20.1817 77.3245 19.7656 76.5375 19.625C75.7504 19.4845 75.2053 19.8584 74.9021 20.7468Z" fill="black"/>
<path d="M80.7263 14.1852C80.8429 13.831 81.0587 13.6426 81.3735 13.6201C82.3063 13.5752 83.2362 13.5976 84.1632 13.6876C85.096 13.7719 86.0259 14.0475 86.9529 14.5141C87.9964 15.0483 88.8301 15.7342 89.454 16.572C89.9845 17.2917 90.3226 18.0817 90.4684 18.9419C90.5617 19.5548 90.448 20.1592 90.1273 20.7552C89.8125 21.3512 89.4685 21.8488 89.0954 22.248C88.6581 22.7034 88.1684 23.0661 87.6262 23.3359C87.0782 23.6115 86.4748 23.7998 85.816 23.901C84.9881 24.0303 84.1399 24.0556 83.2712 23.9769C82.4025 23.8926 81.5367 23.7942 80.6739 23.6817C80.4057 23.6536 80.2279 23.5777 80.1404 23.454C80.053 23.3303 80.0063 23.1785 80.0005 22.9986C79.9539 21.7448 79.9714 20.2435 80.053 18.4949C80.1404 16.7407 80.3649 15.3041 80.7263 14.1852ZM87.7836 18.9419C87.7487 18.509 87.4892 18.1041 87.0053 17.7274C86.8246 17.5981 86.6176 17.4688 86.3844 17.3395C85.7081 17.0021 85.0144 16.7885 84.3031 16.6985C84.1165 16.6704 83.9387 16.6591 83.7696 16.6648C83.5772 16.6816 83.414 16.7491 83.2799 16.8672C83.2158 16.9234 83.1546 17.1371 83.0963 17.5081C83.038 17.8792 82.9884 18.2869 82.9476 18.7311C82.9068 19.1696 82.8806 19.5801 82.8689 19.9624C82.8572 20.3447 82.8689 20.5696 82.9039 20.6371C82.9214 20.6821 82.9447 20.7158 82.9738 20.7383C83.2712 20.8901 83.6035 21.0054 83.9708 21.0841C84.3322 21.1572 84.685 21.1853 85.0289 21.1684C85.4837 21.1516 85.9763 21.0672 86.5069 20.9154C87.0432 20.758 87.3989 20.4684 87.5738 20.0467C87.7253 19.6869 87.7953 19.3186 87.7836 18.9419Z" fill="black"/>
<path d="M98.1466 19.4226C97.7326 19.552 97.5461 20.1423 97.5869 21.1937C97.6452 21.5873 97.6714 22.0484 97.6656 22.5769C97.6598 23.1054 97.5519 23.558 97.342 23.9348C97.2662 24.0641 97.1613 24.1372 97.0272 24.154C96.794 24.1878 96.5521 24.1568 96.3014 24.0613C96.0507 23.9601 95.8641 23.8476 95.7417 23.7239C95.6892 23.6789 95.6542 23.6227 95.6367 23.5552C95.6018 23.4653 95.593 23.3669 95.6105 23.26C95.6338 23.1532 95.6571 23.052 95.6805 22.9564C95.7679 22.6078 95.8146 22.2592 95.8204 21.9106C95.8262 21.5564 95.8175 21.2162 95.7942 20.8901C95.7242 20.5584 95.6163 20.2885 95.4706 20.0805C95.1616 19.5744 94.838 19.3158 94.4999 19.3046C94.1676 19.2933 93.9344 19.5154 93.8003 19.9708C93.6895 20.3363 93.637 20.803 93.6429 21.3709V21.4299C93.6778 21.9022 93.7332 22.352 93.809 22.7793C93.8323 22.8749 93.8673 23.0211 93.914 23.2179C93.9723 23.4484 93.9693 23.6002 93.9052 23.6733C93.8877 23.6902 93.8702 23.707 93.8527 23.7239C93.8003 23.8307 93.7128 23.9151 93.5904 23.9769C93.398 24.0725 93.1823 24.1259 92.9433 24.1372C92.7625 24.1428 92.5847 24.1344 92.4098 24.1119C92.3282 24.1175 92.2524 24.1175 92.1824 24.1119C92.0891 24.1062 92.0075 24.0725 91.9376 24.0107C91.8501 23.9825 91.7802 23.9516 91.7277 23.9179C91.5586 23.7998 91.4362 23.6283 91.3604 23.4034C91.2904 23.1729 91.238 22.948 91.203 22.7287C91.1388 22.3126 91.1039 21.7813 91.098 21.1347C91.0922 20.4881 91.1126 19.8218 91.1592 19.1359C91.2117 18.4443 91.3546 17.9608 91.5878 17.6853C91.6869 17.5166 91.8064 17.4013 91.9463 17.3395C92.0979 17.2664 92.2786 17.2242 92.4885 17.213C92.6984 17.1961 92.8849 17.1961 93.0482 17.213C93.2872 17.2411 93.468 17.3142 93.5904 17.4322C93.7187 17.5503 93.7536 17.7668 93.6953 18.0817C93.9635 17.823 94.3017 17.6824 94.7098 17.66C95.1179 17.6318 95.5551 17.7837 96.0215 18.1154C96.144 18.2053 96.2606 18.3009 96.3713 18.4021C96.6861 17.9298 97.3595 17.6684 98.3914 17.6178C98.8287 17.6403 99.2805 17.8174 99.7469 18.1491C100.242 18.5033 100.607 18.9644 100.84 19.5323C101.073 20.0945 101.231 20.6596 101.312 21.2275C101.371 21.6211 101.397 22.0821 101.391 22.6106C101.385 23.1392 101.277 23.5918 101.067 23.9685C100.992 24.0978 100.887 24.1709 100.753 24.1878C100.519 24.2215 100.277 24.1906 100.027 24.095C99.7761 23.9938 99.5895 23.8813 99.4671 23.7576C99.4146 23.7127 99.3796 23.6564 99.3622 23.589C99.3272 23.499 99.3184 23.4006 99.3359 23.2938C99.3592 23.1869 99.3826 23.0857 99.4059 22.9902C99.4933 22.6416 99.54 22.293 99.5458 21.9444C99.5516 21.5901 99.5429 21.25 99.5196 20.9239C99.4496 20.5921 99.3417 20.3222 99.196 20.1142C98.9103 19.5238 98.5605 19.2933 98.1466 19.4226Z" fill="black"/>
<path d="M101.933 22.0793C101.869 21.2415 101.881 20.3897 101.968 19.5238C102.061 18.658 102.204 18.0648 102.397 17.7443C102.595 17.4182 102.79 17.2636 102.983 17.2804C103.175 17.2917 103.359 17.3114 103.534 17.3395C103.691 17.3732 103.816 17.4041 103.91 17.4322C103.933 17.4379 103.962 17.4519 103.997 17.4744C104.015 17.4857 104.038 17.5081 104.067 17.5419C104.067 17.5419 104.093 17.5672 104.146 17.6178C104.157 17.629 104.178 17.6571 104.207 17.7021C104.224 17.7246 104.239 17.7584 104.251 17.8033C104.262 17.8596 104.274 17.9158 104.286 17.972C104.286 17.9833 104.294 18.0367 104.312 18.1323C104.318 18.1997 104.28 18.7339 104.198 19.7347C104.122 20.7299 104.172 21.8881 104.347 23.2094C104.341 23.35 104.324 23.4878 104.294 23.6227C104.265 23.7576 104.236 23.8504 104.207 23.901C104.154 23.9797 104.047 24.0388 103.883 24.0781C103.808 24.095 103.723 24.1062 103.63 24.1119C103.542 24.1119 103.452 24.1091 103.359 24.1034C103.184 24.0978 102.997 24.0781 102.799 24.0444C102.653 24.0219 102.525 23.991 102.414 23.9516C102.385 23.9348 102.362 23.9207 102.344 23.9094C102.327 23.9038 102.3 23.8813 102.266 23.842C102.248 23.8307 102.225 23.8054 102.196 23.7661C102.196 23.7717 102.175 23.7436 102.134 23.6817C102.117 23.6705 102.102 23.6368 102.091 23.5805C102.079 23.5412 102.064 23.4849 102.047 23.4119C102.041 23.3556 102.003 22.9114 101.933 22.0793ZM103.227 14.4382C103.542 14.4382 103.808 14.5394 104.023 14.7418C104.245 14.9443 104.356 15.1916 104.356 15.484C104.356 15.7708 104.245 16.0182 104.023 16.2262C103.808 16.4286 103.542 16.5298 103.227 16.5298C102.924 16.5298 102.662 16.4286 102.44 16.2262C102.225 16.0182 102.117 15.7708 102.117 15.484C102.117 15.1916 102.225 14.9443 102.44 14.7418C102.662 14.5394 102.924 14.4382 103.227 14.4382Z" fill="black"/>
<path d="M106.183 17.3395C106.212 16.8334 106.259 16.4146 106.323 16.0828C106.393 15.7398 106.475 15.4728 106.568 15.2816C106.644 15.1186 106.734 15.0089 106.839 14.9527C106.979 14.8852 107.177 14.8402 107.434 14.8177C107.69 14.7953 107.892 14.7924 108.037 14.8093C108.241 14.8374 108.402 14.9077 108.518 15.0202C108.641 15.127 108.684 15.3435 108.649 15.6696C108.591 16.1925 108.547 16.7407 108.518 17.3142C108.658 17.3198 108.798 17.3282 108.938 17.3395C109.165 17.362 109.393 17.4069 109.62 17.4744C109.848 17.5363 110.031 17.6234 110.171 17.7359C110.27 17.8202 110.346 17.958 110.398 18.1491C110.445 18.3178 110.463 18.5118 110.451 18.7311C110.433 18.9391 110.398 19.1078 110.346 19.2371C110.282 19.3833 110.2 19.4536 110.101 19.4479C110.054 19.4479 110.005 19.4395 109.952 19.4226C109.912 19.417 109.853 19.4001 109.778 19.372C109.428 19.2596 109.031 19.1921 108.588 19.1696H108.501C108.501 19.2258 108.504 19.2821 108.51 19.3383C108.545 20.6708 108.684 21.8488 108.929 22.8721C108.953 22.9789 108.979 23.0914 109.008 23.2094C109.043 23.3219 109.063 23.4343 109.069 23.5468C109.069 23.7548 108.991 23.9038 108.833 23.9938C108.676 24.0837 108.492 24.1344 108.282 24.1456C108.072 24.1568 107.822 24.1456 107.53 24.1119C107.244 24.0725 107.058 24.0219 106.97 23.9601C106.813 23.8532 106.693 23.693 106.612 23.4793C106.53 23.26 106.469 23.0464 106.428 22.8383C106.341 22.4448 106.271 21.9415 106.218 21.3287C106.172 20.7158 106.145 20.0833 106.14 19.4311C106.134 19.3242 106.131 19.2174 106.131 19.1106H106.087C105.743 19.1162 105.405 19.1471 105.073 19.2034C104.985 19.2202 104.93 19.2287 104.907 19.2287C104.854 19.2287 104.805 19.2202 104.758 19.2034C104.723 19.1865 104.688 19.1556 104.653 19.1106C104.63 19.0768 104.606 19.0206 104.583 18.9419C104.542 18.8013 104.525 18.6439 104.531 18.4696C104.531 18.2953 104.548 18.1351 104.583 17.9889C104.618 17.8314 104.729 17.7077 104.915 17.6178C105.02 17.5672 105.14 17.5194 105.274 17.4744C105.367 17.4519 105.504 17.4238 105.685 17.3901C105.761 17.3788 105.895 17.362 106.087 17.3395H106.183Z" fill="black"/>
<path d="M111.824 24.036C111.736 24.0078 111.666 23.9769 111.614 23.9432C111.445 23.8251 111.323 23.6536 111.247 23.4287C111.171 23.1982 111.118 22.9733 111.089 22.754C111.025 22.3379 110.99 21.8066 110.984 21.16C110.979 20.5134 110.999 19.8471 111.046 19.1612C111.098 18.4696 111.241 17.9861 111.474 17.7106C111.573 17.5419 111.693 17.4266 111.833 17.3648C111.984 17.2917 112.165 17.2495 112.375 17.2383C112.585 17.2214 112.771 17.2214 112.935 17.2383C113.174 17.2664 113.354 17.3395 113.477 17.4575C113.605 17.5756 113.64 17.7921 113.582 18.107C114.066 17.7527 114.689 17.6459 115.453 17.7865C116.217 17.927 116.546 18.2813 116.441 18.8491C116.336 19.417 115.885 19.6363 115.086 19.507C114.287 19.3777 113.821 19.5407 113.687 19.9961C113.576 20.3616 113.523 20.8283 113.529 21.3962C113.529 21.413 113.529 21.4327 113.529 21.4552C113.564 21.9275 113.62 22.3773 113.695 22.8046C113.713 22.9002 113.748 23.0464 113.8 23.2432C113.859 23.4737 113.856 23.6255 113.792 23.6986C113.774 23.7155 113.757 23.7323 113.739 23.7492C113.687 23.856 113.599 23.9404 113.477 24.0022C113.284 24.0978 113.069 24.1512 112.83 24.1625C112.649 24.1681 112.471 24.1597 112.296 24.1372C112.215 24.1428 112.136 24.1428 112.06 24.1372C111.973 24.1315 111.894 24.0978 111.824 24.036Z" fill="black"/>
<path d="M116.782 18.2335C116.94 17.9973 117.077 17.8258 117.193 17.719C117.316 17.6122 117.488 17.4744 117.709 17.3057C117.954 17.2045 118.199 17.272 118.444 17.5081C118.8 17.8511 119.097 18.3403 119.336 18.9756C119.581 19.611 119.866 20.1198 120.193 20.5022C120.292 20.6315 120.4 20.6568 120.517 20.5781C120.639 20.4937 120.741 20.4038 120.823 20.3082C121.062 20.0439 121.292 19.6728 121.513 19.1949C121.741 18.717 121.933 18.3094 122.091 17.972C122.184 17.764 122.286 17.615 122.397 17.525C122.513 17.4294 122.682 17.4294 122.904 17.525C123.114 17.6262 123.289 17.7555 123.429 17.913C123.574 18.0648 123.714 18.2447 123.848 18.4527C124 18.6833 124.038 18.9897 123.962 19.372C123.863 19.8612 123.688 20.3447 123.437 20.8227C123.193 21.3006 122.956 21.7448 122.729 22.1552C122.484 22.5769 122.228 22.9817 121.959 23.3697C121.697 23.7576 121.429 24.1428 121.155 24.5251C120.898 24.8625 120.642 25.1998 120.385 25.5372C120.129 25.8745 119.849 26.1782 119.546 26.448C119.225 26.7348 118.928 26.9203 118.654 27.0047C118.45 27.0665 118.208 27.0244 117.928 26.8782C117.654 26.7376 117.462 26.583 117.351 26.4143C117.24 26.2513 117.129 26.077 117.019 25.8914C116.914 25.7059 116.919 25.5288 117.036 25.3601C117.129 25.2251 117.266 25.0874 117.447 24.9468C117.634 24.8119 117.791 24.6629 117.919 24.4998C118.036 24.3593 118.147 24.244 118.252 24.154C118.362 24.0584 118.514 23.856 118.706 23.5468C119.074 23.0633 119.068 22.5685 118.689 22.0624C118.537 21.8094 118.322 21.503 118.042 21.1431C117.768 20.7777 117.546 20.4797 117.377 20.2492C117.26 20.0861 117.144 19.9174 117.027 19.7431C116.916 19.5632 116.82 19.3748 116.739 19.1781C116.657 19.0038 116.613 18.8491 116.607 18.7142C116.607 18.5736 116.666 18.4134 116.782 18.2335Z" fill="black"/>
</g>
<rect x="4.23856" y="27.1997" width="112.023" height="0.477116" fill="white"/>
<rect x="4.23856" y="27.1997" width="112.023" height="0.477116" stroke="black" stroke-width="0.477116"/>
<rect x="121.742" y="27.2742" width="2.01613" height="0.483871" fill="white"/>
<rect x="121.742" y="27.2742" width="2.01613" height="0.483871" stroke="black" stroke-width="0.483871"/>
<path d="M24.7974 29.0299V30.3194C25.0671 30.3512 25.3044 30.4368 25.5092 30.5761C25.7141 30.7114 25.8728 30.8965 25.9855 31.1313C26.0981 31.3662 26.1544 31.6448 26.1544 31.9672C26.1544 32.4527 26.0333 32.8388 25.7909 33.1254C25.5519 33.4119 25.2207 33.5751 24.7974 33.6149V35H24.357V33.6149C24.0873 33.5871 23.8501 33.5055 23.6452 33.3701C23.4404 33.2308 23.2816 33.0438 23.169 32.809C23.0563 32.5741 23 32.2935 23 31.9672C23 31.4816 23.1195 31.0955 23.3585 30.809C23.6008 30.5224 23.9388 30.3592 24.3724 30.3194V29.0299H24.7974ZM24.3724 30.7552C24.0583 30.791 23.8296 30.9124 23.6862 31.1194C23.5428 31.3224 23.4711 31.605 23.4711 31.9672C23.4711 32.3294 23.5428 32.6139 23.6862 32.8209C23.8296 33.0279 24.0583 33.1493 24.3724 33.1851V30.7552ZM24.7974 30.7612V33.1851C25.1047 33.1453 25.33 33.0219 25.4734 32.8149C25.6168 32.608 25.6884 32.3254 25.6884 31.9672C25.6884 31.609 25.615 31.3284 25.4682 31.1254C25.3249 30.9224 25.1013 30.801 24.7974 30.7612Z" fill="#646464"/>
<path d="M29.6346 30.3075C29.9726 30.3075 30.244 30.4448 30.4488 30.7194C30.6571 30.994 30.7612 31.408 30.7612 31.9612C30.7612 32.5065 30.6571 32.9204 30.4488 33.203C30.244 33.4856 29.9709 33.6269 29.6295 33.6269C29.4178 33.6269 29.242 33.5811 29.1021 33.4896C28.9655 33.398 28.858 33.2886 28.7794 33.1612H28.7487C28.7521 33.2289 28.7572 33.3144 28.7641 33.4179C28.7743 33.5214 28.7794 33.6109 28.7794 33.6866V35H28.3288V30.3672H28.6975L28.759 30.803H28.7794C28.8614 30.6637 28.9689 30.5463 29.1021 30.4507C29.2352 30.3552 29.4127 30.3075 29.6346 30.3075ZM29.5527 30.7493C29.2727 30.7493 29.0747 30.8408 28.9587 31.0239C28.8426 31.207 28.7829 31.4856 28.7794 31.8597V31.9612C28.7794 32.3552 28.8341 32.6597 28.9433 32.8746C29.056 33.0856 29.2625 33.191 29.5629 33.191C29.7268 33.191 29.8634 33.1393 29.9726 33.0358C30.0818 32.9284 30.1621 32.7811 30.2133 32.594C30.2679 32.407 30.2952 32.194 30.2952 31.9552C30.2952 31.5891 30.2338 31.2965 30.1109 31.0776C29.9914 30.8587 29.8053 30.7493 29.5527 30.7493Z" fill="#646464"/>
<path d="M35.3251 31.9612C35.3251 32.4905 35.209 32.9005 34.9769 33.191C34.7481 33.4816 34.4375 33.6269 34.0449 33.6269C33.8025 33.6269 33.5857 33.5632 33.3945 33.4358C33.2068 33.3045 33.0583 33.1154 32.949 32.8687C32.8398 32.6179 32.7851 32.3154 32.7851 31.9612C32.7851 31.4318 32.8978 31.0239 33.1231 30.7373C33.3519 30.4507 33.6642 30.3075 34.0602 30.3075C34.306 30.3075 34.5245 30.3731 34.7157 30.5045C34.9069 30.6318 35.0554 30.8189 35.1612 31.0657C35.2705 31.3085 35.3251 31.607 35.3251 31.9612ZM33.2511 31.9612C33.2511 32.3393 33.3143 32.6398 33.4406 32.8627C33.5703 33.0816 33.7752 33.191 34.0551 33.191C34.3316 33.191 34.5348 33.0816 34.6645 32.8627C34.7942 32.6398 34.8591 32.3393 34.8591 31.9612C34.8591 31.5831 34.7942 31.2866 34.6645 31.0716C34.5348 30.8567 34.3299 30.7493 34.05 30.7493C33.7701 30.7493 33.5669 30.8567 33.4406 31.0716C33.3143 31.2866 33.2511 31.5831 33.2511 31.9612Z" fill="#646464"/>
<path d="M37.9494 30.3672V31.6985H39.4395V30.3672H39.8902V33.5672H39.4395V32.1403H37.9494V33.5672H37.4987V30.3672H37.9494Z" fill="#646464"/>
<path d="M44.1134 30.809H43.2173V33.5672H42.7718V30.809H41.8859V30.3672H44.1134V30.809Z" fill="#646464"/>
<path d="M47.1236 30.3075C47.3557 30.3075 47.5571 30.3672 47.7278 30.4866C47.8985 30.606 48.0282 30.7751 48.117 30.994C48.2092 31.209 48.2553 31.4617 48.2553 31.7522V32.0687H46.3759C46.3827 32.4308 46.4613 32.7075 46.6115 32.8985C46.7651 33.0856 46.9785 33.1791 47.2516 33.1791C47.4257 33.1791 47.5793 33.1612 47.7125 33.1254C47.849 33.0856 47.989 33.0299 48.1324 32.9582V33.4179C47.9924 33.4896 47.8541 33.5413 47.7176 33.5731C47.581 33.609 47.4189 33.6269 47.2311 33.6269C46.9682 33.6269 46.7378 33.5652 46.5398 33.4418C46.3418 33.3184 46.1865 33.1353 46.0738 32.8925C45.9645 32.6498 45.9099 32.3493 45.9099 31.991C45.9099 31.6408 45.9594 31.3403 46.0584 31.0896C46.1608 30.8388 46.3025 30.6458 46.4835 30.5104C46.6678 30.3751 46.8812 30.3075 47.1236 30.3075ZM47.1184 30.7373C46.9034 30.7373 46.7327 30.8189 46.6064 30.9821C46.4835 31.1413 46.4101 31.3642 46.3862 31.6507H47.7842C47.7807 31.3801 47.7261 31.1612 47.6203 30.994C47.5145 30.8229 47.3472 30.7373 47.1184 30.7373Z" fill="#646464"/>
<path d="M50.8641 30.3672V31.6985H52.3543V30.3672H52.8049V33.5672H52.3543V32.1403H50.8641V33.5672H50.4135V30.3672H50.8641Z" fill="#646464"/>
<path d="M57.1716 30.3672V33.1254H57.571V34.6776H57.1357V33.5672H55.2256V34.6776H54.7955V33.1254H55.0157C55.2512 32.7473 55.4271 32.3174 55.5431 31.8358C55.6626 31.3502 55.7241 30.8607 55.7275 30.3672H57.1716ZM56.7363 30.7791H56.1269C56.1098 31.0498 56.0723 31.3303 56.0142 31.6209C55.9596 31.9075 55.8862 32.1821 55.794 32.4448C55.7053 32.7075 55.6012 32.9343 55.4817 33.1254H56.7363V30.7791Z" fill="#646464"/>
<path d="M63.3338 30.3075C63.6718 30.3075 63.9432 30.4448 64.148 30.7194C64.3563 30.994 64.4604 31.408 64.4604 31.9612C64.4604 32.5065 64.3563 32.9204 64.148 33.203C63.9432 33.4856 63.6701 33.6269 63.3287 33.6269C63.117 33.6269 62.9412 33.5811 62.8013 33.4896C62.6647 33.398 62.5572 33.2886 62.4786 33.1612H62.4479C62.4513 33.2289 62.4564 33.3144 62.4633 33.4179C62.4735 33.5214 62.4786 33.6109 62.4786 33.6866V35H62.028V30.3672H62.3967L62.4582 30.803H62.4786C62.5606 30.6637 62.6681 30.5463 62.8013 30.4507C62.9344 30.3552 63.1119 30.3075 63.3338 30.3075ZM63.2519 30.7493C62.9719 30.7493 62.7739 30.8408 62.6579 31.0239C62.5418 31.207 62.4821 31.4856 62.4786 31.8597V31.9612C62.4786 32.3552 62.5333 32.6597 62.6425 32.8746C62.7552 33.0856 62.9617 33.191 63.2621 33.191C63.426 33.191 63.5625 33.1393 63.6718 33.0358C63.781 32.9284 63.8613 32.7811 63.9125 32.594C63.9671 32.407 63.9944 32.194 63.9944 31.9552C63.9944 31.5891 63.933 31.2965 63.8101 31.0776C63.6906 30.8587 63.5045 30.7493 63.2519 30.7493Z" fill="#646464"/>
<path d="M67.6775 30.3134C68.0121 30.3134 68.2596 30.399 68.42 30.5701C68.5805 30.7413 68.6607 31.0139 68.6607 31.3881V33.5672H68.333L68.2459 33.1134H68.2254C68.1059 33.2886 67.9796 33.4179 67.8465 33.5015C67.7133 33.5851 67.5324 33.6269 67.3037 33.6269C67.0545 33.6269 66.8479 33.5512 66.6841 33.4C66.5202 33.2448 66.4383 33.004 66.4383 32.6776C66.4383 32.3592 66.5458 32.1144 66.7609 31.9433C66.9759 31.7682 67.3071 31.6726 67.7543 31.6567L68.2203 31.6388V31.4478C68.2203 31.1811 68.1708 30.996 68.0718 30.8925C67.9728 30.7891 67.8328 30.7373 67.6519 30.7373C67.5085 30.7373 67.372 30.7632 67.2422 30.8149C67.1125 30.8627 66.9913 30.9184 66.8786 30.9821L66.7404 30.5881C66.8599 30.5124 67.0015 30.4488 67.1654 30.397C67.3293 30.3413 67.5 30.3134 67.6775 30.3134ZM68.2152 32.003L67.8106 32.0209C67.4692 32.0368 67.232 32.1005 67.0988 32.2119C66.9691 32.3234 66.9043 32.4806 66.9043 32.6836C66.9043 32.8627 66.9503 32.994 67.0425 33.0776C67.1381 33.1612 67.2593 33.203 67.4061 33.203C67.6348 33.203 67.826 33.1294 67.9796 32.9821C68.1367 32.8308 68.2152 32.6 68.2152 32.2896V32.003Z" fill="#646464"/>
<path d="M71.6899 30.3075C72.004 30.3075 72.2532 30.3811 72.4376 30.5284C72.6253 30.6756 72.7192 30.8826 72.7192 31.1493C72.7192 31.3443 72.6714 31.4995 72.5758 31.6149C72.4837 31.7264 72.359 31.808 72.202 31.8597V31.8836C72.3113 31.9194 72.412 31.9692 72.5041 32.0328C72.5963 32.0965 72.6697 32.1821 72.7243 32.2896C72.7824 32.393 72.8114 32.5244 72.8114 32.6836C72.8114 32.9502 72.7158 33.1751 72.5246 33.3582C72.3369 33.5373 72.0416 33.6269 71.6387 33.6269C71.4407 33.6269 71.2615 33.609 71.101 33.5731C70.9406 33.5373 70.8074 33.4856 70.7016 33.4179V32.9463C70.8177 33.01 70.9542 33.0677 71.1113 33.1194C71.2717 33.1711 71.4458 33.197 71.6336 33.197C71.8384 33.197 72.0108 33.1572 72.1508 33.0776C72.2942 32.994 72.3659 32.8527 72.3659 32.6537C72.3659 32.2955 72.1047 32.1164 71.5824 32.1164H71.2137V31.6866H71.5107C71.7463 31.6866 71.934 31.6507 72.074 31.5791C72.2174 31.5035 72.2891 31.3761 72.2891 31.197C72.2891 31.0458 72.2344 30.9323 72.1252 30.8567C72.0194 30.7811 71.8657 30.7433 71.6643 30.7433C71.5141 30.7433 71.381 30.7612 71.2649 30.797C71.1522 30.8289 71.0276 30.8786 70.8911 30.9463L70.7323 30.5284C71.0191 30.3811 71.3383 30.3075 71.6899 30.3075Z" fill="#646464"/>
<path d="M76.2436 30.3075C76.5815 30.3075 76.8529 30.4448 77.0578 30.7194C77.266 30.994 77.3701 31.408 77.3701 31.9612C77.3701 32.5065 77.266 32.9204 77.0578 33.203C76.8529 33.4856 76.5798 33.6269 76.2384 33.6269C76.0268 33.6269 75.851 33.5811 75.711 33.4896C75.5744 33.398 75.4669 33.2886 75.3884 33.1612H75.3577C75.3611 33.2289 75.3662 33.3144 75.373 33.4179C75.3833 33.5214 75.3884 33.6109 75.3884 33.6866V35H74.9377V30.3672H75.3064L75.3679 30.803H75.3884C75.4703 30.6637 75.5778 30.5463 75.711 30.4507C75.8441 30.3552 76.0217 30.3075 76.2436 30.3075ZM76.1616 30.7493C75.8817 30.7493 75.6837 30.8408 75.5676 31.0239C75.4515 31.207 75.3918 31.4856 75.3884 31.8597V31.9612C75.3884 32.3552 75.443 32.6597 75.5522 32.8746C75.6649 33.0856 75.8714 33.191 76.1719 33.191C76.3357 33.191 76.4723 33.1393 76.5815 33.0358C76.6908 32.9284 76.771 32.7811 76.8222 32.594C76.8768 32.407 76.9041 32.194 76.9041 31.9552C76.9041 31.5891 76.8427 31.2965 76.7198 31.0776C76.6003 30.8587 76.4143 30.7493 76.1616 30.7493Z" fill="#646464"/>
<path d="M80.5872 30.3134C80.9218 30.3134 81.1693 30.399 81.3298 30.5701C81.4902 30.7413 81.5704 31.0139 81.5704 31.3881V33.5672H81.2427L81.1557 33.1134H81.1352C81.0157 33.2886 80.8894 33.4179 80.7562 33.5015C80.6231 33.5851 80.4422 33.6269 80.2134 33.6269C79.9642 33.6269 79.7577 33.5512 79.5938 33.4C79.4299 33.2448 79.348 33.004 79.348 32.6776C79.348 32.3592 79.4555 32.1144 79.6706 31.9433C79.8857 31.7682 80.2168 31.6726 80.6641 31.6567L81.1301 31.6388V31.4478C81.1301 31.1811 81.0805 30.996 80.9815 30.8925C80.8825 30.7891 80.7426 30.7373 80.5616 30.7373C80.4183 30.7373 80.2817 30.7632 80.152 30.8149C80.0222 30.8627 79.901 30.9184 79.7884 30.9821L79.6501 30.5881C79.7696 30.5124 79.9113 30.4488 80.0752 30.397C80.239 30.3413 80.4097 30.3134 80.5872 30.3134ZM81.1249 32.003L80.7204 32.0209C80.379 32.0368 80.1417 32.1005 80.0086 32.2119C79.8789 32.3234 79.814 32.4806 79.814 32.6836C79.814 32.8627 79.8601 32.994 79.9523 33.0776C80.0478 33.1612 80.169 33.203 80.3158 33.203C80.5446 33.203 80.7357 33.1294 80.8894 32.9821C81.0464 32.8308 81.1249 32.6 81.1249 32.2896V32.003Z" fill="#646464"/>
<path d="M83.7342 31.6448C83.7342 30.9443 83.8247 30.399 84.0056 30.009C84.1866 29.6189 84.4785 29.3721 84.8813 29.2687C85.1032 29.2129 85.32 29.1632 85.5317 29.1194C85.7433 29.0756 85.9413 29.0358 86.1257 29L86.2025 29.4597C86.083 29.4836 85.9482 29.5095 85.7979 29.5373C85.6477 29.5652 85.4992 29.595 85.3524 29.6269C85.2056 29.6587 85.0793 29.6866 84.9735 29.7104C84.7516 29.7662 84.5758 29.9015 84.446 30.1164C84.3163 30.3313 84.2429 30.6617 84.2258 31.1075H84.2566C84.3044 31.0318 84.3692 30.9542 84.4512 30.8746C84.5365 30.795 84.6372 30.7274 84.7533 30.6716C84.8728 30.6159 85.0076 30.5881 85.1578 30.5881C85.5129 30.5881 85.7809 30.7214 85.9618 30.9881C86.1427 31.2547 86.2332 31.601 86.2332 32.0269C86.2332 32.3851 86.1803 32.6836 86.0745 32.9224C85.9686 33.1572 85.8201 33.3343 85.629 33.4537C85.4412 33.5692 85.2244 33.6269 84.9786 33.6269C84.5997 33.6269 84.2975 33.4577 84.0722 33.1194C83.8469 32.7811 83.7342 32.2896 83.7342 31.6448ZM85.0145 33.191C85.2364 33.191 85.4156 33.1075 85.5521 32.9403C85.6887 32.7731 85.757 32.4866 85.757 32.0806C85.757 31.7542 85.7041 31.4975 85.5982 31.3104C85.4958 31.1194 85.3251 31.0239 85.0861 31.0239C84.9325 31.0239 84.7943 31.0637 84.6714 31.1433C84.5519 31.2189 84.4495 31.3065 84.3641 31.406C84.2822 31.5055 84.2258 31.5891 84.1951 31.6567C84.1951 31.8517 84.2071 32.0408 84.231 32.2239C84.2549 32.407 84.2958 32.5721 84.3539 32.7194C84.4153 32.8627 84.499 32.9781 84.6048 33.0657C84.714 33.1493 84.8506 33.191 85.0145 33.191Z" fill="#646464"/>
<path d="M90.7889 31.9612C90.7889 32.4905 90.6728 32.9005 90.4407 33.191C90.2119 33.4816 89.9013 33.6269 89.5087 33.6269C89.2663 33.6269 89.0495 33.5632 88.8583 33.4358C88.6706 33.3045 88.5221 33.1154 88.4128 32.8687C88.3036 32.6179 88.249 32.3154 88.249 31.9612C88.249 31.4318 88.3616 31.0239 88.5869 30.7373C88.8157 30.4507 89.128 30.3075 89.524 30.3075C89.7698 30.3075 89.9883 30.3731 90.1795 30.5045C90.3707 30.6318 90.5192 30.8189 90.625 31.0657C90.7343 31.3085 90.7889 31.607 90.7889 31.9612ZM88.715 31.9612C88.715 32.3393 88.7781 32.6398 88.9044 32.8627C89.0341 33.0816 89.239 33.191 89.5189 33.191C89.7955 33.191 89.9986 33.0816 90.1283 32.8627C90.258 32.6398 90.3229 32.3393 90.3229 31.9612C90.3229 31.5831 90.258 31.2866 90.1283 31.0716C89.9986 30.8567 89.7937 30.7493 89.5138 30.7493C89.2339 30.7493 89.0307 30.8567 88.9044 31.0716C88.7781 31.2866 88.715 31.5831 88.715 31.9612Z" fill="#646464"/>
<path d="M94.8072 30.809H93.9111V33.5672H93.4656V30.809H92.5797V30.3672H94.8072V30.809Z" fill="#646464"/>
<path d="M98.4307 30.3672H98.9223L97.7496 31.9075L99.0196 33.5672H98.4973L97.258 31.9433V33.5672H96.8074V30.3672H97.258V31.9194L98.4307 30.3672Z" fill="#646464"/>
<path d="M102.017 30.3134C102.351 30.3134 102.599 30.399 102.759 30.5701C102.92 30.7413 103 31.0139 103 31.3881V33.5672H102.672L102.585 33.1134H102.565C102.445 33.2886 102.319 33.4179 102.186 33.5015C102.053 33.5851 101.872 33.6269 101.643 33.6269C101.394 33.6269 101.187 33.5512 101.023 33.4C100.859 33.2448 100.778 33.004 100.778 32.6776C100.778 32.3592 100.885 32.1144 101.1 31.9433C101.315 31.7682 101.646 31.6726 102.094 31.6567L102.56 31.6388V31.4478C102.56 31.1811 102.51 30.996 102.411 30.8925C102.312 30.7891 102.172 30.7373 101.991 30.7373C101.848 30.7373 101.711 30.7632 101.582 30.8149C101.452 30.8627 101.331 30.9184 101.218 30.9821L101.08 30.5881C101.199 30.5124 101.341 30.4488 101.505 30.397C101.669 30.3413 101.839 30.3134 102.017 30.3134ZM102.554 32.003L102.15 32.0209C101.809 32.0368 101.571 32.1005 101.438 32.2119C101.308 32.3234 101.244 32.4806 101.244 32.6836C101.244 32.8627 101.29 32.994 101.382 33.0776C101.477 33.1612 101.599 33.203 101.745 33.203C101.974 33.203 102.165 33.1294 102.319 32.9821C102.476 32.8308 102.554 32.6 102.554 32.2896V32.003Z" fill="#646464"/>
<path d="M91 0.306824C91 0.306824 123 -2.61335 123 9.56394C123 12 123 12 123 12H91V0.306824Z" fill="#FDC305"/>
<defs>
<filter id="filter0_d" x="0" y="13" width="128" height="22.0323" filterUnits="userSpaceOnUse" color-interpolation-filters="sRGB">
<feFlood flood-opacity="0" result="BackgroundImageFix"/>
<feColorMatrix in="SourceAlpha" type="matrix" values="0 0 0 0 0 0 0 0 0 0 0 0 0 0 0 0 0 0 127 0"/>
<feOffset dy="4"/>
<feGaussianBlur stdDeviation="2"/>
<feColorMatrix type="matrix" values="0 0 0 0 0 0 0 0 0 0 0 0 0 0 0 0 0 0 0.25 0"/>
<feBlend mode="normal" in2="BackgroundImageFix" result="effect1_dropShadow"/>
<feBlend mode="normal" in="SourceGraphic" in2="effect1_dropShadow" result="shape"/>
</filter>
</defs>
</svg>
