<svg width="170" height="37" viewBox="0 0 170 37" fill="none" xmlns="http://www.w3.org/2000/svg">
<g filter="url(#filter0_d)">
<path d="M42.0283 9.13867C41.9756 9.30273 41.8467 9.43457 41.6416 9.53418C41.4424 9.63379 41.2021 9.71289 40.9209 9.77148C40.6455 9.82422 40.3467 9.8623 40.0244 9.88574C39.708 9.90332 39.4062 9.91504 39.1191 9.9209C38.832 9.92676 38.5771 9.92969 38.3545 9.92969C38.1377 9.92383 37.9883 9.92383 37.9062 9.92969C37.7949 9.94141 37.6895 9.96484 37.5898 10C37.4902 10.0293 37.3877 10.0586 37.2822 10.0879C37.1768 10.1172 37.0625 10.1436 36.9395 10.167C36.8223 10.1904 36.6875 10.2021 36.5352 10.2021H36.4121C36.4824 10.5596 36.5352 10.9287 36.5703 11.3096C36.6113 11.6846 36.6465 12.0771 36.6758 12.4873C36.8223 12.4287 36.96 12.3906 37.0889 12.373C37.2236 12.3496 37.3555 12.3379 37.4844 12.3379C37.6191 12.332 37.7568 12.3291 37.8975 12.3291C38.0381 12.3291 38.1904 12.3203 38.3545 12.3027C38.5361 12.2852 38.7178 12.25 38.8994 12.1973C39.0869 12.1387 39.2656 12.1094 39.4355 12.1094C39.5703 12.1094 39.6904 12.1504 39.7959 12.2324C39.9072 12.3086 40.001 12.4082 40.0771 12.5312C40.1533 12.6543 40.2119 12.7891 40.2529 12.9355C40.2939 13.082 40.3145 13.2197 40.3145 13.3486C40.3145 13.4482 40.2734 13.5566 40.1914 13.6738C40.1152 13.7852 40.0098 13.8906 39.875 13.9902C39.7461 14.084 39.5967 14.1631 39.4268 14.2275C39.2627 14.292 39.0898 14.3242 38.9082 14.3242C38.8379 14.3242 38.7734 14.3096 38.7148 14.2803C38.6562 14.251 38.5977 14.2188 38.5391 14.1836C38.4863 14.1426 38.4307 14.1074 38.3721 14.0781C38.3193 14.0488 38.2607 14.0342 38.1963 14.0342C38.1611 14.0342 38.1084 14.043 38.0381 14.0605C37.9736 14.0781 37.9092 14.0957 37.8447 14.1133C37.7803 14.1309 37.7246 14.1484 37.6777 14.166C37.6309 14.1836 37.6045 14.1924 37.5986 14.1924C37.499 14.1924 37.4023 14.1807 37.3086 14.1572C37.2148 14.1338 37.1299 14.1221 37.0537 14.1221C36.9834 14.1221 36.9336 14.1543 36.9043 14.2188C36.875 14.2832 36.8604 14.3652 36.8604 14.4648C36.8604 14.6523 36.8779 14.8076 36.9131 14.9307C36.9482 15.0479 36.9893 15.1562 37.0361 15.2559C37.0889 15.3496 37.1416 15.4434 37.1943 15.5371C37.2529 15.6309 37.3027 15.7422 37.3438 15.8711C37.3789 15.9941 37.4141 16.1436 37.4492 16.3193C37.4844 16.4893 37.5137 16.668 37.5371 16.8555C37.5664 17.043 37.5898 17.2305 37.6074 17.418C37.625 17.6055 37.6338 17.7783 37.6338 17.9365C37.6338 18.0068 37.6279 18.1123 37.6162 18.2529C37.6045 18.3877 37.584 18.5283 37.5547 18.6748C37.5312 18.8213 37.4961 18.959 37.4492 19.0879C37.4082 19.2227 37.3555 19.3193 37.291 19.3779C37.2617 19.4072 37.209 19.4336 37.1328 19.457C37.0566 19.4805 36.9717 19.5039 36.8779 19.5273C36.79 19.5508 36.7021 19.5713 36.6143 19.5889C36.5264 19.6123 36.459 19.6328 36.4121 19.6504C36.2832 19.6855 36.1396 19.7383 35.9814 19.8086C35.8232 19.8789 35.6855 19.9141 35.5684 19.9141C35.4746 19.9141 35.3574 19.8818 35.2168 19.8174C35.0762 19.7588 34.9326 19.7207 34.7861 19.7031C34.5049 19.6797 34.2852 19.6387 34.127 19.5801C33.9688 19.5273 33.8457 19.4482 33.7578 19.3428C33.6758 19.2432 33.6143 19.1113 33.5732 18.9473C33.5381 18.7773 33.5 18.5664 33.459 18.3145C33.4473 18.2441 33.4268 18.1885 33.3975 18.1475C33.3682 18.1064 33.3535 18.0654 33.3535 18.0244C33.3535 17.96 33.3623 17.8896 33.3799 17.8135C33.4033 17.7373 33.4268 17.6582 33.4502 17.5762C33.4795 17.4883 33.5059 17.4004 33.5293 17.3125C33.5527 17.2188 33.5645 17.1221 33.5645 17.0225C33.5645 16.9229 33.5557 16.8232 33.5381 16.7236C33.5205 16.624 33.5117 16.5244 33.5117 16.4248C33.5234 16.3193 33.5469 16.2139 33.582 16.1084C33.6172 15.9971 33.6348 15.8857 33.6348 15.7744C33.6348 15.5225 33.6143 15.291 33.5732 15.0801C33.5322 14.8633 33.5117 14.6992 33.5117 14.5879C33.5293 14.4824 33.5586 14.3887 33.5996 14.3066C33.6465 14.2246 33.6904 14.1367 33.7314 14.043C33.7783 13.9492 33.8193 13.8438 33.8545 13.7266C33.8896 13.6035 33.9072 13.4541 33.9072 13.2783C33.9072 13.0732 33.8984 12.8535 33.8809 12.6191C33.8633 12.3789 33.8545 12.1475 33.8545 11.9248C33.8545 11.7959 33.8604 11.6582 33.8721 11.5117C33.8838 11.3594 33.8896 11.2158 33.8896 11.0811C33.8896 10.8877 33.8516 10.7529 33.7754 10.6768C33.7051 10.6006 33.6201 10.5508 33.5205 10.5273C33.4209 10.5039 33.3184 10.4951 33.2129 10.501C33.1133 10.5068 33.0342 10.4951 32.9756 10.4658C32.9053 10.4424 32.8291 10.4014 32.7471 10.3428C32.665 10.2783 32.5889 10.208 32.5186 10.1318C32.4482 10.0498 32.3896 9.96484 32.3428 9.87695C32.2959 9.78906 32.2725 9.7041 32.2725 9.62207C32.2725 9.56934 32.2754 9.51074 32.2812 9.44629C32.2871 9.37598 32.29 9.31445 32.29 9.26172C32.29 9.16797 32.2754 9.07422 32.2461 8.98047C32.2168 8.88086 32.1816 8.77539 32.1406 8.66406C32.1055 8.55273 32.0732 8.43262 32.0439 8.30371C32.0146 8.16895 32 8.01953 32 7.85547C32 7.65039 32.0615 7.50098 32.1846 7.40723C32.3135 7.31348 32.4717 7.24609 32.6592 7.20508C32.8525 7.1582 33.0547 7.12012 33.2656 7.09082C33.4824 7.06152 33.6787 7.00586 33.8545 6.92383C34.0127 6.85352 34.1855 6.81836 34.373 6.81836C34.5898 6.81836 34.8096 6.85645 35.0322 6.93262C35.2607 7.00293 35.4805 7.08496 35.6914 7.17871C35.9023 7.2666 36.1016 7.35449 36.2891 7.44238C36.4824 7.52441 36.6553 7.57422 36.8076 7.5918C36.8428 7.60352 36.8809 7.60938 36.9219 7.60938C36.9629 7.60938 37.0068 7.60938 37.0537 7.60938C37.2061 7.60938 37.3701 7.59766 37.5459 7.57422C37.7217 7.54492 37.8975 7.51562 38.0732 7.48633C38.249 7.45117 38.416 7.42188 38.5742 7.39844C38.7383 7.36914 38.8818 7.35449 39.0049 7.35449C39.0752 7.35449 39.1543 7.35742 39.2422 7.36328C39.3359 7.36914 39.4238 7.37207 39.5059 7.37207C39.6699 7.37207 39.8311 7.36035 39.9893 7.33691C40.1475 7.30762 40.2998 7.27832 40.4463 7.24902C40.5928 7.21387 40.7305 7.18457 40.8594 7.16113C40.9883 7.13184 41.1084 7.11719 41.2197 7.11719C41.3896 7.11719 41.5273 7.16113 41.6328 7.24902C41.668 7.28418 41.709 7.36914 41.7559 7.50391C41.8027 7.63867 41.8467 7.79395 41.8877 7.96973C41.9346 8.13965 41.9727 8.31543 42.002 8.49707C42.0312 8.67871 42.0459 8.83105 42.0459 8.9541C42.0459 8.98926 42.0459 9.02441 42.0459 9.05957C42.0459 9.09473 42.04 9.12109 42.0283 9.13867ZM51.9322 13.5068C51.9439 13.6416 51.9527 13.7793 51.9586 13.9199C51.9644 14.0547 51.9673 14.1953 51.9673 14.3418C51.9673 14.7578 51.9468 15.1797 51.9058 15.6074C51.8648 16.0293 51.8179 16.4395 51.7652 16.8379C51.7476 16.9668 51.7242 17.0986 51.6949 17.2334C51.6714 17.3623 51.6597 17.4766 51.6597 17.5762C51.6597 17.793 51.6802 18.0039 51.7213 18.209C51.7623 18.4082 51.7828 18.5928 51.7828 18.7627C51.7828 18.7979 51.7593 18.877 51.7125 19C51.6656 19.123 51.5894 19.249 51.4839 19.3779C51.3843 19.5068 51.2525 19.6211 51.0884 19.7207C50.9302 19.8262 50.7369 19.8789 50.5084 19.8789C50.2447 19.8789 50.066 19.8027 49.9722 19.6504C49.8843 19.498 49.8404 19.3047 49.8404 19.0703C49.8404 18.9062 49.855 18.7305 49.8843 18.543C49.9136 18.3496 49.9459 18.1533 49.981 17.9541C49.8463 17.9834 49.7115 18.0391 49.5767 18.1211C49.4478 18.2031 49.3248 18.2793 49.2076 18.3496C48.9498 18.502 48.692 18.6631 48.4341 18.833C48.1822 19.0029 47.9068 19.1582 47.608 19.2988C47.3091 19.4395 46.981 19.5566 46.6236 19.6504C46.272 19.7441 45.8677 19.791 45.4107 19.791C45.399 19.791 45.3521 19.791 45.2701 19.791C45.1939 19.7969 45.1031 19.7969 44.9976 19.791C44.8921 19.7852 44.7808 19.7705 44.6636 19.7471C44.5523 19.7236 44.4527 19.6855 44.3648 19.6328C44.2359 19.5039 44.1099 19.3428 43.9869 19.1494C43.8697 18.9619 43.7642 18.7773 43.6705 18.5957C43.5826 18.4082 43.5123 18.2441 43.4595 18.1035C43.4068 17.9629 43.3804 17.8779 43.3804 17.8486C43.3687 17.8193 43.3629 17.793 43.3629 17.7695C43.3629 17.7402 43.3629 17.7109 43.3629 17.6816C43.3629 17.5586 43.3716 17.4326 43.3892 17.3037C43.4068 17.1689 43.4273 17.043 43.4507 16.9258C43.4742 16.8027 43.4947 16.7002 43.5123 16.6182C43.5298 16.5303 43.5386 16.4717 43.5386 16.4424C43.5386 16.2959 43.5269 16.1553 43.5035 16.0205C43.48 15.8799 43.4683 15.7275 43.4683 15.5635C43.4683 15.4873 43.4713 15.4082 43.4771 15.3262C43.4888 15.2383 43.5093 15.1475 43.5386 15.0537C43.5386 15.0479 43.5533 15.0098 43.5826 14.9395C43.6119 14.8691 43.6441 14.793 43.6793 14.7109C43.7203 14.6289 43.7584 14.5498 43.7935 14.4736C43.8345 14.3975 43.8638 14.3535 43.8814 14.3418C43.9224 14.3066 43.9781 14.2773 44.0484 14.2539C44.1187 14.2305 44.1978 14.207 44.2857 14.1836C44.3736 14.1602 44.4615 14.1367 44.5494 14.1133C44.6431 14.0898 44.7339 14.0576 44.8218 14.0166C44.9566 13.9521 45.0767 13.8701 45.1822 13.7705C45.2935 13.6709 45.3931 13.6035 45.481 13.5684C45.5396 13.5391 45.6187 13.5156 45.7183 13.498C45.8238 13.4805 45.9322 13.4482 46.0435 13.4014C46.1197 13.3779 46.2134 13.3457 46.3248 13.3047C46.4361 13.2578 46.5533 13.2168 46.6763 13.1816C46.8052 13.1406 46.9341 13.1055 47.063 13.0762C47.192 13.041 47.315 13.0176 47.4322 13.0059C47.4849 13.0059 47.5494 13.0146 47.6255 13.0322C47.7076 13.0498 47.8043 13.0586 47.9156 13.0586C47.9976 13.0586 48.0972 13.041 48.2144 13.0059C48.3316 12.9707 48.4722 12.9531 48.6363 12.9531C48.8004 12.9531 48.9586 12.9648 49.1109 12.9883C49.2632 13.0117 49.3804 13.0234 49.4625 13.0234C49.5269 13.0234 49.565 13.0059 49.5767 12.9707C49.5943 12.9297 49.6031 12.8828 49.6031 12.8301C49.6031 12.7422 49.5855 12.6396 49.5504 12.5225C49.5152 12.4053 49.4742 12.291 49.4273 12.1797C49.3804 12.0684 49.3365 11.9717 49.2955 11.8896C49.2545 11.8076 49.2252 11.7549 49.2076 11.7314C49.1197 11.6201 49.0201 11.5352 48.9088 11.4766C48.8033 11.418 48.7066 11.3887 48.6187 11.3887C48.525 11.3887 48.4312 11.4004 48.3375 11.4238C48.2496 11.4473 48.15 11.459 48.0386 11.459C47.9566 11.459 47.8716 11.4531 47.7838 11.4414C47.7017 11.4297 47.6197 11.4238 47.5377 11.4238C47.3384 11.4238 47.107 11.4736 46.8433 11.5732C46.5855 11.6729 46.3248 11.7871 46.0611 11.916C45.8033 12.0449 45.5572 12.168 45.3228 12.2852C45.0943 12.3965 44.9097 12.4697 44.7691 12.5049C44.6929 12.5225 44.6138 12.54 44.5318 12.5576C44.4498 12.5693 44.3707 12.5752 44.2945 12.5752C44.2476 12.5752 44.1802 12.5518 44.0923 12.5049C44.0103 12.4521 43.9283 12.3877 43.8463 12.3115C43.7642 12.2354 43.691 12.1504 43.6265 12.0566C43.5679 11.957 43.5386 11.8604 43.5386 11.7666C43.5386 11.626 43.5767 11.5117 43.6529 11.4238C43.7291 11.3301 43.8228 11.251 43.9341 11.1865C44.0455 11.1221 44.1656 11.0664 44.2945 11.0195C44.4293 10.9668 44.5494 10.9082 44.6548 10.8438C44.7896 10.7617 44.9478 10.665 45.1295 10.5537C45.3111 10.4424 45.4664 10.3369 45.5953 10.2373C45.73 10.126 45.8267 10.0264 45.8853 9.93848C45.9439 9.84473 46.0142 9.77441 46.0963 9.72754C46.1783 9.68066 46.3072 9.63672 46.483 9.5957C46.6588 9.55469 46.8228 9.51074 46.9752 9.46387C47.022 9.44629 47.0865 9.41992 47.1685 9.38477C47.2564 9.34961 47.3443 9.31738 47.4322 9.28809C47.5259 9.25879 47.6138 9.23242 47.6959 9.20898C47.7838 9.18555 47.8511 9.17383 47.898 9.17383H47.9332C48.0445 9.21484 48.1705 9.24707 48.3111 9.27051C48.4517 9.28809 48.5982 9.30566 48.7505 9.32324C48.9088 9.34082 49.064 9.36133 49.2164 9.38477C49.3746 9.40234 49.524 9.42871 49.6646 9.46387C49.7115 9.47559 49.7554 9.50195 49.7964 9.54297C49.8375 9.57812 49.8814 9.60449 49.9283 9.62207C50.1451 9.68652 50.3267 9.75391 50.4732 9.82422C50.6197 9.88867 50.7486 9.99414 50.8599 10.1406C50.9713 10.2812 51.0738 10.4863 51.1675 10.7559C51.2671 11.0195 51.3755 11.3799 51.4927 11.8369C51.5162 11.9424 51.5601 12.0391 51.6246 12.127C51.689 12.2148 51.7359 12.3027 51.7652 12.3906C51.8121 12.5371 51.8472 12.7158 51.8707 12.9268C51.9 13.1318 51.9205 13.3252 51.9322 13.5068ZM49.8228 15.8535C49.8521 15.8242 49.8697 15.7598 49.8755 15.6602C49.8873 15.5547 49.8931 15.4375 49.8931 15.3086C49.8931 15.1562 49.8902 15.0332 49.8843 14.9395C49.8785 14.8398 49.8668 14.7637 49.8492 14.7109C49.8316 14.6582 49.8082 14.623 49.7789 14.6055C49.7496 14.582 49.7115 14.5703 49.6646 14.5703C49.6295 14.5703 49.5972 14.5732 49.5679 14.5791C49.5445 14.585 49.5211 14.5908 49.4976 14.5967C49.4742 14.6084 49.4507 14.6172 49.4273 14.623C49.3336 14.6113 49.2457 14.6055 49.1636 14.6055C49.0875 14.6055 49.0084 14.6055 48.9263 14.6055C48.7623 14.6055 48.6099 14.6143 48.4693 14.6318C48.3345 14.6494 48.1998 14.6729 48.065 14.7021C47.9361 14.7314 47.8072 14.7637 47.6783 14.7988C47.5494 14.834 47.4117 14.8662 47.2652 14.8955C47.0543 14.9482 46.8609 14.9834 46.6851 15.001C46.5093 15.0186 46.357 15.0537 46.2281 15.1064C46.0992 15.1592 45.9996 15.2441 45.9293 15.3613C45.8589 15.4727 45.8238 15.6484 45.8238 15.8887C45.8238 16.1348 45.8882 16.3018 46.0171 16.3896C46.1461 16.4717 46.3336 16.5127 46.5796 16.5127C46.6558 16.5127 46.7437 16.501 46.8433 16.4775C46.9429 16.4482 47.0484 16.416 47.1597 16.3809C47.2769 16.3457 47.3941 16.3105 47.5113 16.2754C47.6343 16.2344 47.7574 16.1992 47.8804 16.1699C47.9683 16.1523 48.0621 16.1348 48.1617 16.1172C48.2671 16.0938 48.3697 16.0732 48.4693 16.0557C48.5748 16.0381 48.6714 16.0205 48.7593 16.0029C48.8531 15.9854 48.9322 15.9707 48.9966 15.959C49.0377 15.9531 49.1021 15.9473 49.19 15.9414C49.2779 15.9297 49.3658 15.9209 49.4537 15.915C49.5416 15.9033 49.6207 15.8945 49.691 15.8887C49.7671 15.877 49.8111 15.8652 49.8228 15.8535ZM66.0724 16.8203C66.0372 16.9375 65.9698 17.0342 65.8702 17.1104C65.7765 17.1807 65.6593 17.2363 65.5187 17.2773C65.3839 17.3184 65.2345 17.3477 65.0704 17.3652C64.9122 17.377 64.754 17.3828 64.5958 17.3828H64.3937C64.3761 17.3828 64.3263 17.3857 64.2443 17.3916C64.1622 17.3975 64.0802 17.4004 63.9982 17.4004C63.84 17.4004 63.7228 17.3711 63.6466 17.3125C63.5704 17.2539 63.5148 17.1807 63.4796 17.0928C63.4445 16.999 63.4181 16.8994 63.4005 16.7939C63.3888 16.6885 63.3654 16.5889 63.3302 16.4951C63.3185 16.4658 63.2921 16.416 63.2511 16.3457C63.2159 16.2754 63.1749 16.2021 63.128 16.126C63.0812 16.0439 63.0402 15.9648 63.005 15.8887C62.9698 15.8066 62.9523 15.7393 62.9523 15.6865C62.9523 15.6221 62.9698 15.5488 63.005 15.4668C63.0402 15.3789 63.0753 15.2881 63.1105 15.1943C63.1515 15.1006 63.1896 15.0068 63.2247 14.9131C63.2599 14.8193 63.2775 14.7344 63.2775 14.6582C63.2775 14.5703 63.2687 14.459 63.2511 14.3242C63.2335 14.1895 63.2247 14.0811 63.2247 13.999C63.2247 13.7998 63.2335 13.6064 63.2511 13.4189C63.2687 13.2256 63.2775 13.0527 63.2775 12.9004C63.2775 12.7188 63.2452 12.5723 63.1808 12.4609C63.1222 12.3438 62.9933 12.2852 62.7941 12.2852C62.5655 12.2852 62.3693 12.3438 62.2052 12.4609C62.047 12.5781 61.9181 12.7129 61.8185 12.8652C61.7189 13.0117 61.6456 13.1523 61.5988 13.2871C61.5577 13.4219 61.5372 13.5068 61.5372 13.542C61.5372 13.6709 61.5519 13.8115 61.5812 13.9639C61.6105 14.1162 61.6456 14.2773 61.6866 14.4473C61.7277 14.6172 61.7687 14.7959 61.8097 14.9834C61.8507 15.165 61.88 15.3525 61.8976 15.5459C61.9269 15.874 61.9474 16.2168 61.9591 16.5742C61.9767 16.9258 61.9855 17.2422 61.9855 17.5234C61.9855 17.7285 61.9503 17.9248 61.88 18.1123C61.8097 18.2939 61.6808 18.4404 61.4933 18.5518C61.423 18.5986 61.3351 18.625 61.2296 18.6309C61.1241 18.6309 61.0275 18.6396 60.9396 18.6572C60.8868 18.6689 60.8077 18.6924 60.7023 18.7275C60.5968 18.7568 60.4796 18.7861 60.3507 18.8154C60.2218 18.8447 60.087 18.8711 59.9464 18.8945C59.8058 18.918 59.6739 18.9297 59.5509 18.9297C59.4161 18.9297 59.3136 18.918 59.2433 18.8945C59.173 18.8711 59.1173 18.8359 59.0763 18.7891C59.0353 18.7422 58.9972 18.6865 58.962 18.6221C58.9327 18.5518 58.8888 18.4727 58.8302 18.3848C58.7775 18.3086 58.7247 18.2441 58.672 18.1914C58.6193 18.1328 58.5695 18.0801 58.5226 18.0332C58.4816 17.9805 58.4464 17.9248 58.4171 17.8662C58.3937 17.8018 58.382 17.7227 58.382 17.6289C58.382 17.4941 58.4025 17.3652 58.4435 17.2422C58.4845 17.1191 58.505 16.9844 58.505 16.8379C58.505 16.7031 58.4991 16.5625 58.4874 16.416C58.4757 16.2637 58.4611 16.1113 58.4435 15.959C58.4259 15.8066 58.4113 15.6572 58.3995 15.5107C58.3878 15.3643 58.382 15.2266 58.382 15.0977C58.382 15.0508 58.3849 14.9863 58.3907 14.9043C58.3966 14.8164 58.3995 14.7168 58.3995 14.6055C58.3995 14.3594 58.379 14.1748 58.338 14.0518C58.297 13.9287 58.1915 13.8672 58.0216 13.8672C57.9454 13.8672 57.8634 13.8789 57.7755 13.9023C57.6876 13.9258 57.5997 13.9551 57.5118 13.9902C57.4298 14.0195 57.3507 14.0518 57.2745 14.0869C57.2042 14.1162 57.1486 14.1396 57.1075 14.1572C57.0138 14.1982 56.9142 14.2422 56.8087 14.2891C56.7032 14.3359 56.6066 14.3945 56.5187 14.4648C56.4308 14.5293 56.3575 14.6143 56.2989 14.7197C56.2462 14.8193 56.2198 14.9453 56.2198 15.0977C56.2198 15.1738 56.2316 15.2559 56.255 15.3438C56.2784 15.4316 56.3048 15.5225 56.3341 15.6162C56.3693 15.71 56.3986 15.8037 56.422 15.8975C56.4454 15.9912 56.4571 16.082 56.4571 16.1699C56.4571 16.2109 56.4542 16.249 56.4484 16.2842C56.4425 16.3193 56.4396 16.3545 56.4396 16.3896C56.4396 16.4893 56.4571 16.5859 56.4923 16.6797C56.5275 16.7676 56.5655 16.8525 56.6066 16.9346C56.6534 17.0166 56.6945 17.0957 56.7296 17.1719C56.7648 17.2422 56.7823 17.3066 56.7823 17.3652C56.7823 17.6758 56.7765 17.9541 56.7648 18.2002C56.7589 18.4404 56.7238 18.6455 56.6593 18.8154C56.6007 18.9795 56.507 19.1055 56.378 19.1934C56.2491 19.2812 56.0646 19.3252 55.8243 19.3252C55.7657 19.3252 55.6749 19.3135 55.5519 19.29C55.4288 19.2725 55.297 19.2461 55.1564 19.2109C55.0216 19.1816 54.8956 19.1436 54.7784 19.0967C54.6671 19.0498 54.5909 19 54.5499 18.9473C54.5323 18.9121 54.5118 18.8535 54.4884 18.7715C54.4708 18.6836 54.4503 18.584 54.4269 18.4727C54.4093 18.3613 54.3946 18.2441 54.3829 18.1211C54.3712 17.998 54.3654 17.8779 54.3654 17.7607C54.3654 17.626 54.3859 17.5176 54.4269 17.4355C54.4738 17.3477 54.4972 17.2568 54.4972 17.1631C54.4972 17.0928 54.4913 17.0107 54.4796 16.917C54.4738 16.8174 54.465 16.7148 54.4532 16.6094C54.4474 16.5039 54.4415 16.3984 54.4357 16.293C54.4298 16.1875 54.4269 16.0879 54.4269 15.9941C54.4269 15.9355 54.4386 15.8389 54.462 15.7041C54.4855 15.5693 54.5118 15.4141 54.5411 15.2383C54.5704 15.0625 54.5968 14.8779 54.6202 14.6846C54.6437 14.4854 54.6554 14.292 54.6554 14.1045C54.6554 13.7412 54.6437 13.3926 54.6202 13.0586C54.5968 12.7246 54.5851 12.3965 54.5851 12.0742C54.5851 11.9102 54.5851 11.7432 54.5851 11.5732C54.5909 11.4033 54.6144 11.248 54.6554 11.1074C54.7023 10.9668 54.7755 10.8525 54.8751 10.7646C54.9806 10.6768 55.13 10.6328 55.3234 10.6328C55.4698 10.6328 55.5988 10.6504 55.7101 10.6855C55.8273 10.7148 55.9239 10.7764 56.0001 10.8701C56.0821 10.9639 56.1407 11.0928 56.1759 11.2568C56.2169 11.415 56.2374 11.626 56.2374 11.8896C56.2374 12.042 56.2257 12.1914 56.2023 12.3379C56.1788 12.4785 56.1671 12.6426 56.1671 12.8301C56.4132 12.7949 56.6388 12.748 56.8439 12.6895C57.0489 12.625 57.2482 12.5547 57.4415 12.4785C57.6349 12.3965 57.8312 12.3145 58.0304 12.2324C58.2296 12.1445 58.4435 12.0654 58.672 11.9951C58.8243 11.9482 58.9708 11.9014 59.1114 11.8545C59.2579 11.8076 59.3986 11.7842 59.5333 11.7842C59.6622 11.7842 59.7765 11.8076 59.8761 11.8545C59.9816 11.8955 60.0753 11.9424 60.1573 11.9951C60.2452 12.042 60.3214 12.0889 60.3859 12.1357C60.4562 12.1768 60.5265 12.1973 60.5968 12.1973C60.673 12.1973 60.7374 12.168 60.7902 12.1094C60.8488 12.0508 60.9015 11.9805 60.9484 11.8984C60.9952 11.8105 61.045 11.7168 61.0978 11.6172C61.1505 11.5117 61.212 11.418 61.2823 11.3359C61.3585 11.248 61.4464 11.1748 61.546 11.1162C61.6515 11.0576 61.7804 11.0283 61.9327 11.0283C62.0323 11.0283 62.1349 11.0312 62.2404 11.0371C62.3517 11.043 62.4571 11.0459 62.5568 11.0459C62.7208 11.0459 62.8995 11.0312 63.0929 11.002C63.2921 10.9727 63.4855 10.9404 63.673 10.9053C63.8605 10.8643 64.0304 10.8291 64.1827 10.7998C64.3409 10.7705 64.4552 10.7559 64.5255 10.7559C64.5958 10.7559 64.6837 10.7764 64.7892 10.8174C64.8946 10.8584 65.003 10.9404 65.1144 11.0635C65.2316 11.1807 65.3458 11.3447 65.4571 11.5557C65.5743 11.7607 65.6769 12.0332 65.7648 12.373C65.8585 12.707 65.9318 13.1113 65.9845 13.5859C66.0431 14.0605 66.0724 14.623 66.0724 15.2734C66.0724 15.3438 66.0636 15.4111 66.046 15.4756C66.0343 15.5342 66.0196 15.5928 66.0021 15.6514C65.9845 15.71 65.9669 15.7686 65.9493 15.8271C65.9376 15.8857 65.9347 15.9414 65.9405 15.9941C65.9405 16.1055 65.9611 16.2373 66.0021 16.3896C66.0489 16.542 66.0724 16.668 66.0724 16.7676V16.8203ZM70.9665 8.76074C70.9196 8.88379 70.8288 8.98633 70.694 9.06836C70.5593 9.14453 70.4011 9.20605 70.2194 9.25293C70.0436 9.2998 69.8561 9.33496 69.6569 9.3584C69.4577 9.37598 69.2702 9.38477 69.0944 9.38477C68.7897 9.38477 68.5583 9.30859 68.4001 9.15625C68.2419 9.00391 68.1628 8.71973 68.1628 8.30371C68.1628 8.13965 68.1862 7.9873 68.2331 7.84668C68.2858 7.70605 68.3386 7.57715 68.3913 7.45996C68.4499 7.34277 68.5026 7.24023 68.5495 7.15234C68.6022 7.06445 68.6286 6.98828 68.6286 6.92383C68.6989 6.87109 68.7956 6.82422 68.9186 6.7832C69.0475 6.73633 69.1764 6.69824 69.3054 6.66895C69.4343 6.63379 69.5514 6.60742 69.6569 6.58984C69.7624 6.57227 69.8327 6.56348 69.8679 6.56348C70.1667 6.56348 70.4128 6.61621 70.6061 6.72168C70.7995 6.82715 70.8962 6.94727 70.8962 7.08203C70.8962 7.14648 70.8903 7.2168 70.8786 7.29297C70.8669 7.36328 70.861 7.4248 70.861 7.47754C70.8727 7.62988 70.902 7.7998 70.9489 7.9873C70.9958 8.16895 71.0192 8.33594 71.0192 8.48828C71.0192 8.59375 71.0016 8.68457 70.9665 8.76074ZM71.4762 18.3848C71.4294 18.4551 71.3327 18.5312 71.1862 18.6133C71.0456 18.6895 70.8845 18.7627 70.7028 18.833C70.5212 18.8975 70.3366 18.9502 70.1491 18.9912C69.9675 19.0322 69.8151 19.0527 69.6921 19.0527C69.4636 19.0293 69.2702 18.9766 69.112 18.8945C68.9538 18.8125 68.8249 18.7012 68.7253 18.5605C68.6257 18.4199 68.5524 18.2559 68.5055 18.0684C68.4587 17.8809 68.4264 17.6699 68.4089 17.4355C68.4089 17.3184 68.4264 17.2012 68.4616 17.084C68.5026 16.9609 68.5231 16.8262 68.5231 16.6797C68.5231 16.5156 68.5114 16.3516 68.488 16.1875C68.4645 16.0176 68.4528 15.8506 68.4528 15.6865C68.4528 15.5518 68.4557 15.3789 68.4616 15.168C68.4733 14.957 68.488 14.7285 68.5055 14.4824C68.5231 14.2363 68.5436 13.9844 68.5671 13.7266C68.5964 13.4688 68.6257 13.2256 68.655 12.9971C68.6843 12.7686 68.7165 12.5664 68.7516 12.3906C68.7868 12.209 68.8249 12.0771 68.8659 11.9951C68.9655 11.79 69.0915 11.6406 69.2438 11.5469C69.3962 11.4531 69.5632 11.4062 69.7448 11.4062C69.9792 11.4062 70.1755 11.4531 70.3337 11.5469C70.4919 11.6406 70.6179 11.7754 70.7116 11.9512C70.8112 12.127 70.8815 12.3408 70.9225 12.5928C70.9636 12.8389 70.9841 13.1143 70.9841 13.4189C70.9841 13.5537 70.9782 13.6855 70.9665 13.8145C70.9548 13.9434 70.9489 14.0693 70.9489 14.1924C70.9489 14.4385 70.9723 14.6816 71.0192 14.9219C71.072 15.1621 71.1276 15.3936 71.1862 15.6162C71.2507 15.8389 71.3093 16.0527 71.362 16.2578C71.4147 16.4629 71.4411 16.6504 71.4411 16.8203C71.4411 16.873 71.4382 16.9346 71.4323 17.0049C71.4264 17.0693 71.4235 17.1279 71.4235 17.1807C71.4235 17.3975 71.444 17.5762 71.485 17.7168C71.5261 17.8516 71.5466 17.9746 71.5466 18.0859C71.5466 18.1914 71.5231 18.291 71.4762 18.3848ZM78.4534 17.1104C78.4651 17.1572 78.4709 17.1982 78.4709 17.2334C78.4709 17.2686 78.4709 17.3008 78.4709 17.3301C78.4709 17.4648 78.4446 17.582 78.3918 17.6816C78.3391 17.7812 78.2864 17.8838 78.2336 17.9893C78.2043 18.042 78.175 18.1123 78.1457 18.2002C78.1164 18.2881 78.0784 18.373 78.0315 18.4551C77.9846 18.5312 77.926 18.5986 77.8557 18.6572C77.7913 18.7158 77.7122 18.7451 77.6184 18.7451C77.5129 18.7451 77.3899 18.7393 77.2493 18.7275C77.1086 18.7158 76.9797 18.71 76.8625 18.71C76.7219 18.71 76.552 18.7188 76.3528 18.7363C76.1536 18.7539 75.9455 18.7627 75.7288 18.7627H75.553C75.3303 18.7627 75.1106 18.7832 74.8938 18.8242C74.677 18.8594 74.4895 18.877 74.3313 18.877C74.2551 18.877 74.1702 18.8564 74.0764 18.8154C73.9885 18.7744 73.9065 18.7188 73.8303 18.6484C73.7541 18.5723 73.6897 18.4785 73.637 18.3672C73.5842 18.2559 73.5579 18.1299 73.5579 17.9893C73.5579 17.8662 73.6047 17.7754 73.6985 17.7168C73.7922 17.6523 73.8948 17.5938 74.0061 17.541C74.1233 17.4883 74.2288 17.4297 74.3225 17.3652C74.4221 17.2949 74.4719 17.1982 74.4719 17.0752C74.4719 16.958 74.4602 16.8262 74.4368 16.6797C74.4133 16.5332 74.387 16.3838 74.3577 16.2314C74.3342 16.0732 74.3108 15.918 74.2873 15.7656C74.2639 15.6074 74.2522 15.4609 74.2522 15.3262C74.2522 15.1094 74.2551 14.8926 74.261 14.6758C74.2668 14.459 74.2698 14.2393 74.2698 14.0166C74.2698 13.4131 74.2522 12.8594 74.217 12.3555C74.1877 11.8457 74.1555 11.3623 74.1204 10.9053C74.0852 10.4424 74.05 9.98828 74.0149 9.54297C73.9856 9.0918 73.9709 8.62012 73.9709 8.12793C73.9709 7.92871 73.9885 7.75 74.0237 7.5918C74.0588 7.43359 74.1233 7.29883 74.217 7.1875C74.3166 7.07617 74.4543 6.99121 74.6301 6.93262C74.8118 6.86816 75.0461 6.83594 75.3332 6.83594C75.6262 6.83594 75.8694 6.86523 76.0627 6.92383C76.262 6.98242 76.4202 7.07324 76.5373 7.19629C76.6604 7.31348 76.7483 7.46582 76.801 7.65332C76.8538 7.83496 76.8801 8.05176 76.8801 8.30371C76.8801 8.53223 76.8655 8.75195 76.8362 8.96289C76.8069 9.16797 76.7922 9.39355 76.7922 9.63965V10.123C76.7922 10.2695 76.7834 10.416 76.7659 10.5625C76.7483 10.709 76.7278 10.8613 76.7043 11.0195C76.6809 11.1719 76.6604 11.3301 76.6428 11.4941C76.6252 11.6523 76.6164 11.8193 76.6164 11.9951C76.6164 12.4697 76.634 12.9561 76.6692 13.4541C76.7043 13.9521 76.7219 14.4619 76.7219 14.9834C76.7219 15.499 76.7248 15.8887 76.7307 16.1523C76.7424 16.416 76.8069 16.5479 76.9241 16.5479C77.012 16.5479 77.1145 16.5303 77.2317 16.4951C77.3489 16.46 77.4602 16.4424 77.5657 16.4424C77.7707 16.4541 77.9582 16.5127 78.1282 16.6182C78.2981 16.7236 78.4065 16.8877 78.4534 17.1104ZM88.3045 13.1289C88.2928 13.2168 88.2752 13.3428 88.2518 13.5068C88.2283 13.6709 88.2049 13.835 88.1814 13.999C88.158 14.1631 88.1375 14.3096 88.1199 14.4385C88.1023 14.5615 88.0906 14.6289 88.0848 14.6406C88.0555 14.7051 88.0027 14.7725 87.9266 14.8428C87.8504 14.9131 87.7889 14.998 87.742 15.0977C87.7244 15.1445 87.7186 15.2031 87.7244 15.2734C87.7303 15.3438 87.7186 15.4111 87.6893 15.4756C87.6775 15.5225 87.6512 15.5605 87.6102 15.5898C87.5691 15.6191 87.5428 15.6572 87.5311 15.7041C87.449 15.9502 87.3699 16.2285 87.2938 16.5391C87.2176 16.8496 87.1443 17.1572 87.074 17.4619C87.0037 17.7607 86.9305 18.042 86.8543 18.3057C86.784 18.5693 86.7137 18.7773 86.6434 18.9297C86.6141 18.9883 86.576 19.041 86.5291 19.0879C86.4822 19.1406 86.4295 19.1934 86.3709 19.2461C86.3182 19.2988 86.2654 19.3516 86.2127 19.4043C86.16 19.4629 86.1189 19.5273 86.0896 19.5977C86.0721 19.6328 86.0574 19.6885 86.0457 19.7646C86.034 19.8408 86.0135 19.9111 85.9842 19.9756C85.9607 20.0225 85.9373 20.0605 85.9139 20.0898C85.8904 20.125 85.867 20.1572 85.8436 20.1865C85.826 20.2158 85.8113 20.2451 85.7996 20.2744C85.7879 20.3037 85.782 20.3418 85.782 20.3887C85.782 20.4238 85.785 20.4561 85.7908 20.4854C85.7967 20.5146 85.7996 20.5469 85.7996 20.582C85.7996 20.6758 85.7557 20.7754 85.6678 20.8809C85.5799 20.9863 85.4627 21.0889 85.3162 21.1885C85.1756 21.2881 85.0115 21.3848 84.824 21.4785C84.6365 21.5723 84.4432 21.6543 84.2439 21.7246C84.0506 21.7949 83.8572 21.8506 83.6639 21.8916C83.4764 21.9326 83.3064 21.9531 83.1541 21.9531C82.9256 21.9531 82.6619 21.8857 82.3631 21.751C82.0643 21.6162 81.7684 21.4521 81.4754 21.2588C81.1883 21.0713 80.9217 20.8779 80.6756 20.6787C80.4354 20.4854 80.2537 20.3271 80.1307 20.2041C80.1131 20.1865 80.0896 20.1279 80.0604 20.0283C80.0369 19.9346 79.9871 19.8438 79.9109 19.7559C79.8465 19.6855 79.782 19.6299 79.7176 19.5889C79.6531 19.5537 79.6063 19.5186 79.577 19.4834C79.4656 19.2959 79.41 19.1172 79.41 18.9473C79.41 18.8125 79.4393 18.6543 79.4979 18.4727C79.5506 18.2852 79.6268 18.0918 79.7264 17.8926C79.826 17.6875 79.9402 17.4883 80.0691 17.2949C80.2039 17.1016 80.3475 16.9287 80.4998 16.7764C80.6521 16.6182 80.8104 16.4922 80.9744 16.3984C81.1385 16.2988 81.3025 16.249 81.4666 16.249C81.6072 16.249 81.7391 16.2812 81.8621 16.3457C81.991 16.4102 82.1053 16.5098 82.2049 16.6445C82.2342 16.6973 82.2547 16.7734 82.2664 16.873C82.2781 16.9668 82.3104 17.0576 82.3631 17.1455C82.41 17.2275 82.4803 17.3008 82.574 17.3652C82.6678 17.4297 82.741 17.5059 82.7938 17.5938C82.8875 17.7227 82.952 17.8545 82.9871 17.9893C83.0223 18.124 83.0721 18.2324 83.1365 18.3145C83.1834 18.373 83.242 18.4404 83.3123 18.5166C83.3826 18.5869 83.4559 18.6543 83.532 18.7188C83.6082 18.7773 83.6844 18.8271 83.7605 18.8682C83.8367 18.9092 83.9041 18.9297 83.9627 18.9297C84.0447 18.918 84.115 18.8711 84.1736 18.7891C84.2322 18.7012 84.285 18.6045 84.3318 18.499C84.3846 18.3936 84.4285 18.2881 84.4637 18.1826C84.5047 18.0713 84.5428 17.9834 84.5779 17.9189C84.6014 17.8721 84.6395 17.8076 84.6922 17.7256C84.7508 17.6377 84.8094 17.5469 84.868 17.4531C84.9266 17.3535 84.9764 17.2568 85.0174 17.1631C85.0584 17.0635 85.0789 16.9785 85.0789 16.9082C85.0789 16.832 85.032 16.7676 84.9383 16.7148C84.8445 16.6562 84.7273 16.6035 84.5867 16.5566C84.452 16.5039 84.3084 16.457 84.1561 16.416C84.0037 16.3691 83.8689 16.3135 83.7518 16.249C83.3943 16.0615 83.1102 15.8652 82.8992 15.6602C82.6883 15.4551 82.5125 15.2412 82.3719 15.0186C82.2313 14.79 82.1053 14.5498 81.9939 14.2979C81.8826 14.04 81.7479 13.7646 81.5896 13.4717C81.5428 13.3896 81.4871 13.3105 81.4227 13.2344C81.3582 13.1582 81.2996 13.0703 81.2469 12.9707C81.1883 12.8711 81.1355 12.7773 81.0887 12.6895C81.0477 12.6016 81.0066 12.5137 80.9656 12.4258C80.9305 12.3379 80.8895 12.2441 80.8426 12.1445C80.8016 12.0391 80.7488 11.9248 80.6844 11.8018C80.6434 11.7256 80.5936 11.6406 80.535 11.5469C80.4822 11.4531 80.4295 11.3564 80.3768 11.2568C80.324 11.1514 80.2771 11.0488 80.2361 10.9492C80.201 10.8438 80.1834 10.7441 80.1834 10.6504C80.1834 10.4629 80.2479 10.3223 80.3768 10.2285C80.5057 10.1348 80.6463 10.0879 80.7986 10.0879C81.0037 10.0879 81.1766 10.1348 81.3172 10.2285C81.4578 10.3164 81.5838 10.4365 81.6951 10.5889C81.8123 10.7354 81.9236 10.9053 82.0291 11.0986C82.1404 11.292 82.2693 11.4912 82.4158 11.6963C82.4861 11.79 82.5623 11.8691 82.6443 11.9336C82.7264 11.998 82.8143 12.0566 82.908 12.1094C83.0076 12.1562 83.1102 12.2031 83.2156 12.25C83.3211 12.2969 83.4266 12.3496 83.532 12.4082C83.5789 12.4492 83.6229 12.499 83.6639 12.5576C83.7049 12.6162 83.7518 12.6631 83.8045 12.6982C83.8689 12.7334 83.9422 12.7627 84.0242 12.7861C84.1063 12.8096 84.1648 12.8359 84.2 12.8652C84.2879 12.9531 84.3758 13.0645 84.4637 13.1992C84.5574 13.334 84.6512 13.4746 84.7449 13.6211C84.8387 13.7676 84.9324 13.917 85.0262 14.0693C85.1258 14.2158 85.2254 14.3477 85.325 14.4648C85.4246 14.582 85.5213 14.6787 85.615 14.7549C85.7146 14.8252 85.8113 14.8604 85.9051 14.8604C85.9227 14.8545 85.9402 14.8076 85.9578 14.7197C85.9813 14.6318 86.0018 14.5234 86.0193 14.3945C86.0428 14.2598 86.0604 14.1133 86.0721 13.9551C86.0896 13.791 86.1043 13.6328 86.116 13.4805C86.1336 13.3281 86.1453 13.1875 86.1512 13.0586C86.157 12.9297 86.16 12.833 86.16 12.7686C86.16 12.7041 86.1512 12.6191 86.1336 12.5137C86.116 12.4023 86.0955 12.291 86.0721 12.1797C86.0486 12.0684 86.0281 11.9658 86.0105 11.8721C85.993 11.7725 85.9842 11.7051 85.9842 11.6699C85.9959 11.6406 86.0018 11.6084 86.0018 11.5732C86.0018 11.5322 86.0018 11.4883 86.0018 11.4414C86.0018 11.3477 85.9988 11.248 85.993 11.1426C85.9871 11.0312 85.9842 10.9434 85.9842 10.8789C85.9842 10.7441 86.0223 10.6387 86.0984 10.5625C86.1805 10.4805 86.2801 10.4131 86.3973 10.3604C86.5203 10.3076 86.6521 10.2607 86.7928 10.2197C86.9334 10.1729 87.0652 10.1172 87.1883 10.0527C87.2352 10.0293 87.2967 10.0029 87.3729 9.97363C87.449 9.93848 87.5252 9.90625 87.6014 9.87695C87.6834 9.84766 87.7625 9.82129 87.8387 9.79785C87.9148 9.77441 87.9793 9.7627 88.032 9.7627C88.0789 9.7627 88.1258 9.80078 88.1727 9.87695C88.2195 9.94727 88.2635 10.041 88.3045 10.1582C88.3455 10.2754 88.3836 10.4043 88.4188 10.5449C88.4539 10.6855 88.4832 10.8262 88.5066 10.9668C88.5359 11.1074 88.5564 11.2363 88.5682 11.3535C88.5857 11.4707 88.5945 11.5645 88.5945 11.6348C88.5945 11.7344 88.5799 11.8516 88.5506 11.9863C88.5271 12.1211 88.4979 12.2588 88.4627 12.3994C88.4334 12.54 88.4012 12.6748 88.366 12.8037C88.3367 12.9326 88.3162 13.041 88.3045 13.1289ZM103.85 10.7031C103.838 10.7852 103.811 10.8584 103.77 10.9229C103.729 10.9873 103.7 11.0635 103.683 11.1514C103.647 11.2627 103.633 11.3711 103.639 11.4766C103.65 11.5762 103.642 11.6553 103.612 11.7139C103.577 11.8193 103.51 11.9219 103.41 12.0215C103.31 12.1211 103.234 12.2383 103.182 12.373C103.152 12.4316 103.135 12.502 103.129 12.584C103.123 12.666 103.105 12.748 103.076 12.8301C103.047 12.8828 103.012 12.9355 102.971 12.9883C102.935 13.041 102.909 13.0938 102.892 13.1465C102.874 13.2227 102.868 13.3076 102.874 13.4014C102.88 13.4951 102.868 13.5801 102.839 13.6562C102.804 13.7559 102.754 13.8496 102.689 13.9375C102.625 14.0195 102.584 14.1104 102.566 14.21C102.537 14.3213 102.525 14.4414 102.531 14.5703C102.537 14.6934 102.531 14.8135 102.514 14.9307C102.502 14.9951 102.476 15.0625 102.434 15.1328C102.393 15.2031 102.352 15.2734 102.311 15.3438C102.276 15.4141 102.241 15.4844 102.206 15.5547C102.177 15.625 102.165 15.6924 102.171 15.7568C102.171 15.8037 102.174 15.8506 102.18 15.8975C102.185 15.9385 102.188 15.9766 102.188 16.0117C102.188 16.1113 102.159 16.2109 102.101 16.3105C102.048 16.4102 101.986 16.5098 101.916 16.6094C101.851 16.709 101.79 16.8086 101.731 16.9082C101.679 17.0078 101.652 17.1104 101.652 17.2158C101.652 17.292 101.658 17.3594 101.67 17.418C101.682 17.4707 101.687 17.5234 101.687 17.5762C101.687 17.6348 101.664 17.7227 101.617 17.8398C101.576 17.9512 101.491 18.0654 101.362 18.1826C101.233 18.2939 101.049 18.3936 100.809 18.4814C100.574 18.5635 100.267 18.6045 99.8857 18.6045C99.5868 18.6045 99.373 18.5635 99.2441 18.4814C99.1152 18.3994 99.0243 18.2852 98.9716 18.1387C98.9189 17.9863 98.8749 17.8076 98.8398 17.6025C98.8046 17.3975 98.7284 17.1719 98.6113 16.9258C98.5468 16.7969 98.4736 16.6914 98.3915 16.6094C98.3095 16.5215 98.2275 16.4453 98.1454 16.3809C98.0693 16.3164 97.996 16.2549 97.9257 16.1963C97.8613 16.1377 97.8114 16.0703 97.7763 15.9941C97.7587 15.959 97.7441 15.9121 97.7323 15.8535C97.7265 15.7949 97.7177 15.7305 97.706 15.6602C97.7001 15.5898 97.6884 15.5166 97.6708 15.4404C97.6591 15.3643 97.6415 15.291 97.6181 15.2207C97.5654 15.0977 97.5038 14.9746 97.4335 14.8516C97.3632 14.7285 97.2929 14.6113 97.2226 14.5C97.1523 14.3828 97.0849 14.2744 97.0204 14.1748C96.9618 14.0693 96.9208 13.9727 96.8974 13.8848C96.8622 13.7852 96.8447 13.6797 96.8447 13.5684C96.8447 13.4512 96.8271 13.3311 96.7919 13.208C96.7275 13.0029 96.6366 12.7861 96.5195 12.5576C96.4023 12.3232 96.2851 12.083 96.1679 11.8369C96.0566 11.5908 95.9599 11.3447 95.8779 11.0986C95.7958 10.8467 95.7577 10.6006 95.7636 10.3604C95.7636 10.2314 95.7841 10.1113 95.8251 10C95.8661 9.88867 95.9423 9.79199 96.0536 9.70996C96.1181 9.66309 96.2265 9.63379 96.3788 9.62207C96.537 9.60449 96.7099 9.56348 96.8974 9.49902C97.0849 9.44043 97.2519 9.37012 97.3984 9.28809C97.5507 9.2002 97.6913 9.15625 97.8202 9.15625C98.1132 9.15625 98.33 9.18555 98.4706 9.24414C98.6171 9.30273 98.7255 9.39062 98.7958 9.50781C98.8661 9.61914 98.9218 9.7627 98.9628 9.93848C99.0097 10.1084 99.0771 10.3076 99.165 10.5361C99.2118 10.6357 99.2675 10.7383 99.332 10.8438C99.4023 10.9492 99.4609 11.0693 99.5077 11.2041C99.5429 11.333 99.5663 11.4707 99.578 11.6172C99.5898 11.7637 99.6191 11.9072 99.6659 12.0479C99.748 12.2998 99.8329 12.5225 99.9208 12.7158C100.009 12.9033 100.091 13.0879 100.167 13.2695C100.249 13.4512 100.325 13.6416 100.395 13.8408C100.466 14.04 100.524 14.2773 100.571 14.5527C100.712 14.3477 100.826 14.1191 100.914 13.8672C101.008 13.6094 101.093 13.3457 101.169 13.0762C101.251 12.8008 101.333 12.5283 101.415 12.2588C101.497 11.9893 101.6 11.7344 101.723 11.4941C101.769 11.4121 101.822 11.3359 101.881 11.2656C101.939 11.1895 101.983 11.1162 102.013 11.0459C102.054 10.9111 102.077 10.7559 102.083 10.5801C102.089 10.3984 102.109 10.2285 102.144 10.0703C102.185 9.91211 102.256 9.77734 102.355 9.66602C102.461 9.55469 102.634 9.49902 102.874 9.49902C103.015 9.49902 103.143 9.52832 103.261 9.58691C103.378 9.63965 103.48 9.71289 103.568 9.80664C103.656 9.90039 103.724 10.0117 103.77 10.1406C103.823 10.2695 103.85 10.4072 103.85 10.5537V10.7031ZM108.313 8.76074C108.266 8.88379 108.175 8.98633 108.041 9.06836C107.906 9.14453 107.748 9.20605 107.566 9.25293C107.39 9.2998 107.203 9.33496 107.003 9.3584C106.804 9.37598 106.617 9.38477 106.441 9.38477C106.136 9.38477 105.905 9.30859 105.747 9.15625C105.588 9.00391 105.509 8.71973 105.509 8.30371C105.509 8.13965 105.533 7.9873 105.58 7.84668C105.632 7.70605 105.685 7.57715 105.738 7.45996C105.796 7.34277 105.849 7.24023 105.896 7.15234C105.949 7.06445 105.975 6.98828 105.975 6.92383C106.045 6.87109 106.142 6.82422 106.265 6.7832C106.394 6.73633 106.523 6.69824 106.652 6.66895C106.781 6.63379 106.898 6.60742 107.003 6.58984C107.109 6.57227 107.179 6.56348 107.214 6.56348C107.513 6.56348 107.759 6.61621 107.953 6.72168C108.146 6.82715 108.243 6.94727 108.243 7.08203C108.243 7.14648 108.237 7.2168 108.225 7.29297C108.213 7.36328 108.208 7.4248 108.208 7.47754C108.219 7.62988 108.249 7.7998 108.295 7.9873C108.342 8.16895 108.366 8.33594 108.366 8.48828C108.366 8.59375 108.348 8.68457 108.313 8.76074ZM108.823 18.3848C108.776 18.4551 108.679 18.5312 108.533 18.6133C108.392 18.6895 108.231 18.7627 108.049 18.833C107.868 18.8975 107.683 18.9502 107.496 18.9912C107.314 19.0322 107.162 19.0527 107.039 19.0527C106.81 19.0293 106.617 18.9766 106.458 18.8945C106.3 18.8125 106.171 18.7012 106.072 18.5605C105.972 18.4199 105.899 18.2559 105.852 18.0684C105.805 17.8809 105.773 17.6699 105.755 17.4355C105.755 17.3184 105.773 17.2012 105.808 17.084C105.849 16.9609 105.87 16.8262 105.87 16.6797C105.87 16.5156 105.858 16.3516 105.834 16.1875C105.811 16.0176 105.799 15.8506 105.799 15.6865C105.799 15.5518 105.802 15.3789 105.808 15.168C105.82 14.957 105.834 14.7285 105.852 14.4824C105.87 14.2363 105.89 13.9844 105.914 13.7266C105.943 13.4688 105.972 13.2256 106.001 12.9971C106.031 12.7686 106.063 12.5664 106.098 12.3906C106.133 12.209 106.171 12.0771 106.212 11.9951C106.312 11.79 106.438 11.6406 106.59 11.5469C106.743 11.4531 106.91 11.4062 107.091 11.4062C107.326 11.4062 107.522 11.4531 107.68 11.5469C107.838 11.6406 107.964 11.7754 108.058 11.9512C108.158 12.127 108.228 12.3408 108.269 12.5928C108.31 12.8389 108.331 13.1143 108.331 13.4189C108.331 13.5537 108.325 13.6855 108.313 13.8145C108.301 13.9434 108.295 14.0693 108.295 14.1924C108.295 14.4385 108.319 14.6816 108.366 14.9219C108.418 15.1621 108.474 15.3936 108.533 15.6162C108.597 15.8389 108.656 16.0527 108.708 16.2578C108.761 16.4629 108.788 16.6504 108.788 16.8203C108.788 16.873 108.785 16.9346 108.779 17.0049C108.773 17.0693 108.77 17.1279 108.77 17.1807C108.77 17.3975 108.791 17.5762 108.832 17.7168C108.873 17.8516 108.893 17.9746 108.893 18.0859C108.893 18.1914 108.87 18.291 108.823 18.3848ZM120.44 17.1279C120.458 17.3623 120.481 17.5791 120.511 17.7783C120.546 17.9775 120.564 18.1621 120.564 18.332C120.564 18.4727 120.54 18.6104 120.493 18.7451C120.452 18.8799 120.376 18.9971 120.265 19.0967C120.159 19.2021 120.016 19.2871 119.834 19.3516C119.658 19.416 119.436 19.4482 119.166 19.4482C118.803 19.4482 118.516 19.4277 118.305 19.3867C118.1 19.3457 117.947 19.2754 117.848 19.1758C117.748 19.0762 117.687 18.9473 117.663 18.7891C117.64 18.6309 117.628 18.4316 117.628 18.1914C117.628 18.0918 117.631 17.9893 117.637 17.8838C117.648 17.7783 117.66 17.6699 117.672 17.5586C117.443 17.623 117.206 17.6816 116.96 17.7344C116.72 17.7812 116.433 17.8369 116.099 17.9014C115.981 17.9189 115.87 17.96 115.765 18.0244C115.659 18.0889 115.557 18.1211 115.457 18.1211C115.393 18.1211 115.322 18.1123 115.246 18.0947C115.176 18.0771 115.108 18.0684 115.044 18.0684C114.892 18.0684 114.733 18.0947 114.569 18.1475C114.411 18.2002 114.273 18.2266 114.156 18.2266C114.051 18.2266 113.931 18.2002 113.796 18.1475C113.667 18.0947 113.512 18.0684 113.33 18.0684H113.022C112.788 18.0684 112.557 18.0156 112.328 17.9102C112.1 17.8047 111.895 17.6875 111.713 17.5586C111.531 17.4238 111.382 17.2979 111.265 17.1807C111.153 17.0576 111.098 16.9814 111.098 16.9521C111.086 16.9346 111.074 16.8848 111.063 16.8027C111.051 16.7207 111.039 16.6328 111.027 16.5391C111.022 16.4453 111.013 16.3574 111.001 16.2754C110.995 16.1934 110.992 16.1406 110.992 16.1172C110.981 16.0293 110.975 15.9414 110.975 15.8535C110.975 15.7656 110.975 15.6807 110.975 15.5986C110.975 15.4229 110.981 15.2559 110.992 15.0977C111.004 14.9336 111.019 14.7695 111.036 14.6055C111.054 14.4414 111.068 14.2744 111.08 14.1045C111.092 13.9346 111.098 13.7559 111.098 13.5684C111.098 13.4746 111.095 13.3809 111.089 13.2871C111.083 13.1875 111.08 13.0879 111.08 12.9883C111.08 12.9062 111.086 12.8389 111.098 12.7861C111.115 12.7275 111.133 12.6748 111.15 12.6279C111.168 12.5811 111.186 12.5371 111.203 12.4961C111.227 12.4492 111.244 12.3965 111.256 12.3379C111.285 12.2676 111.294 12.1885 111.282 12.1006C111.276 12.0068 111.294 11.9189 111.335 11.8369C111.347 11.79 111.37 11.7432 111.405 11.6963C111.446 11.6436 111.49 11.5879 111.537 11.5293C111.59 11.4707 111.64 11.4121 111.687 11.3535C111.739 11.2949 111.783 11.2334 111.818 11.1689C111.871 11.0752 111.912 10.9844 111.941 10.8965C111.977 10.8027 112.009 10.7178 112.038 10.6416C112.067 10.5596 112.1 10.4893 112.135 10.4307C112.17 10.3662 112.214 10.3193 112.267 10.29C112.302 10.2666 112.36 10.2461 112.442 10.2285C112.524 10.2109 112.615 10.1934 112.715 10.1758C112.814 10.1523 112.917 10.1318 113.022 10.1143C113.134 10.0967 113.236 10.0762 113.33 10.0527C113.594 9.98828 113.913 9.93555 114.288 9.89453C114.669 9.84766 115.041 9.82422 115.404 9.82422C115.662 9.82422 115.891 9.85059 116.09 9.90332C116.289 9.95605 116.474 10.0176 116.644 10.0879C116.819 10.1523 116.986 10.2197 117.145 10.29C117.309 10.3604 117.484 10.4131 117.672 10.4482C117.701 10.2256 117.722 9.95605 117.733 9.63965C117.751 9.32324 117.76 8.99805 117.76 8.66406C117.76 8.48828 117.751 8.3125 117.733 8.13672C117.722 7.96094 117.704 7.79102 117.681 7.62695C117.663 7.45703 117.646 7.30176 117.628 7.16113C117.616 7.01465 117.61 6.88574 117.61 6.77441C117.61 6.69824 117.631 6.60449 117.672 6.49316C117.713 6.37598 117.769 6.26758 117.839 6.16797C117.915 6.0625 118.003 5.97461 118.103 5.9043C118.208 5.82812 118.322 5.79004 118.445 5.79004C118.539 5.79004 118.639 5.81055 118.744 5.85156C118.85 5.88672 118.946 5.93359 119.034 5.99219C119.122 6.04492 119.195 6.10937 119.254 6.18555C119.313 6.25586 119.342 6.32617 119.342 6.39648C119.342 6.47266 119.33 6.54883 119.307 6.625C119.283 6.70117 119.272 6.78906 119.272 6.88867C119.283 6.97656 119.315 7.07324 119.368 7.17871C119.427 7.28418 119.465 7.38965 119.482 7.49512C119.518 7.62988 119.535 7.81445 119.535 8.04883C119.541 8.2832 119.544 8.54395 119.544 8.83105C119.55 9.1123 119.559 9.4082 119.57 9.71875C119.582 10.0293 119.614 10.3281 119.667 10.6152C119.685 10.7207 119.714 10.8145 119.755 10.8965C119.802 10.9727 119.849 11.0518 119.896 11.1338C119.948 11.21 119.992 11.2949 120.027 11.3887C120.063 11.4766 120.08 11.585 120.08 11.7139C120.08 11.8193 120.074 11.9336 120.063 12.0566C120.051 12.1738 120.045 12.3057 120.045 12.4521C120.063 12.792 120.086 13.1553 120.115 13.542C120.145 13.9229 120.177 14.3154 120.212 14.7197C120.253 15.124 120.291 15.5312 120.326 15.9414C120.367 16.3457 120.405 16.7412 120.44 17.1279ZM117.83 12.7861C117.801 12.751 117.739 12.7305 117.646 12.7246C117.558 12.7129 117.452 12.707 117.329 12.707C117.206 12.7012 117.071 12.6953 116.925 12.6895C116.778 12.6777 116.635 12.6572 116.494 12.6279C116.412 12.6104 116.345 12.5898 116.292 12.5664C116.245 12.543 116.201 12.5225 116.16 12.5049C116.119 12.4814 116.075 12.4639 116.028 12.4521C115.981 12.4346 115.923 12.4258 115.853 12.4258C115.63 12.4258 115.413 12.4404 115.202 12.4697C114.997 12.4932 114.836 12.5459 114.719 12.6279C114.66 12.6748 114.602 12.7627 114.543 12.8916C114.49 13.0205 114.443 13.1758 114.402 13.3574C114.361 13.5391 114.329 13.7324 114.306 13.9375C114.282 14.1426 114.271 14.3418 114.271 14.5352C114.271 14.916 114.314 15.1855 114.402 15.3438C114.496 15.502 114.666 15.5811 114.912 15.5811C115.023 15.5811 115.141 15.5693 115.264 15.5459C115.387 15.5166 115.507 15.4873 115.624 15.458C115.747 15.4229 115.858 15.3906 115.958 15.3613C116.058 15.3262 116.143 15.3027 116.213 15.291C116.277 15.2852 116.392 15.2734 116.556 15.2559C116.72 15.2324 116.887 15.209 117.057 15.1855C117.232 15.1562 117.391 15.127 117.531 15.0977C117.672 15.0684 117.754 15.0361 117.777 15.001C117.795 14.9834 117.807 14.9424 117.813 14.8779C117.824 14.8135 117.83 14.7402 117.83 14.6582C117.83 14.582 117.827 14.5 117.821 14.4121C117.815 14.3184 117.81 14.2334 117.804 14.1572C117.798 14.0752 117.792 14.0049 117.786 13.9463C117.78 13.8877 117.777 13.8496 117.777 13.832C117.777 13.8262 117.783 13.7969 117.795 13.7441C117.807 13.6914 117.818 13.627 117.83 13.5508C117.842 13.4746 117.854 13.3926 117.865 13.3047C117.877 13.2168 117.883 13.1348 117.883 13.0586C117.883 12.9414 117.865 12.8506 117.83 12.7861ZM130.793 16.8906C130.804 17.0078 130.816 17.1162 130.828 17.2158C130.845 17.3154 130.854 17.4062 130.854 17.4883C130.854 17.582 130.848 17.6523 130.837 17.6992C130.825 17.7461 130.804 17.7871 130.775 17.8223C130.752 17.8574 130.716 17.8955 130.67 17.9365C130.629 17.9775 130.576 18.0391 130.511 18.1211C130.441 18.2324 130.371 18.3496 130.3 18.4727C130.236 18.5957 130.157 18.707 130.063 18.8066C129.975 18.9062 129.87 18.9883 129.747 19.0527C129.629 19.123 129.486 19.1582 129.316 19.1582C129.211 19.1582 129.096 19.1494 128.973 19.1318C128.856 19.1201 128.736 19.1055 128.613 19.0879C128.496 19.0703 128.379 19.0527 128.261 19.0352C128.15 19.0234 128.047 19.0176 127.954 19.0176C127.549 19.0176 127.139 19.0117 126.723 19C126.313 18.9824 125.923 18.9297 125.554 18.8418C125.431 18.8066 125.302 18.7773 125.168 18.7539C125.033 18.7246 124.898 18.6924 124.763 18.6572C124.629 18.6221 124.5 18.5811 124.377 18.5342C124.254 18.4814 124.148 18.4199 124.06 18.3496C123.808 18.0977 123.606 17.8223 123.454 17.5234C123.307 17.2246 123.19 16.8877 123.102 16.5127C123.02 16.1377 122.962 15.7217 122.926 15.2646C122.891 14.8076 122.862 14.2949 122.838 13.7266C122.827 13.5273 122.806 13.3369 122.777 13.1553C122.748 12.9736 122.733 12.833 122.733 12.7334C122.733 12.6865 122.754 12.6133 122.795 12.5137C122.841 12.4141 122.874 12.3203 122.891 12.2324C122.921 12.1035 122.932 11.9775 122.926 11.8545C122.926 11.7256 122.932 11.6465 122.944 11.6172C122.962 11.5762 122.997 11.5293 123.049 11.4766C123.108 11.418 123.17 11.3564 123.234 11.292C123.304 11.2275 123.372 11.1631 123.436 11.0986C123.506 11.0283 123.565 10.9609 123.612 10.8965C123.653 10.8379 123.753 10.7676 123.911 10.6855C124.075 10.5977 124.277 10.5039 124.517 10.4043C124.757 10.3047 125.027 10.208 125.326 10.1143C125.625 10.0146 125.929 9.92676 126.24 9.85059C126.556 9.76855 126.87 9.7041 127.18 9.65723C127.497 9.60449 127.79 9.5752 128.059 9.56934C128.171 9.56934 128.294 9.58984 128.428 9.63086C128.569 9.67188 128.707 9.72754 128.841 9.79785C128.982 9.8623 129.117 9.93848 129.246 10.0264C129.375 10.1143 129.483 10.2021 129.571 10.29C129.618 10.3369 129.662 10.416 129.703 10.5273C129.744 10.6328 129.791 10.7207 129.843 10.791C129.972 10.9551 130.06 11.0781 130.107 11.1602C130.16 11.2422 130.192 11.3154 130.204 11.3799C130.221 11.4443 130.227 11.5146 130.221 11.5908C130.215 11.667 130.221 11.7842 130.239 11.9424C130.251 12.0654 130.259 12.168 130.265 12.25C130.271 12.332 130.274 12.4082 130.274 12.4785C130.274 12.5488 130.274 12.6162 130.274 12.6807C130.274 12.7451 130.274 12.8184 130.274 12.9004C130.274 13.0703 130.23 13.208 130.142 13.3135C130.054 13.4189 129.934 13.5156 129.782 13.6035C129.629 13.6914 129.445 13.7764 129.228 13.8584C129.017 13.9404 128.789 14.04 128.543 14.1572C128.338 14.2568 128.118 14.3271 127.883 14.3682C127.649 14.4092 127.432 14.4297 127.233 14.4297C127.204 14.4297 127.18 14.4297 127.163 14.4297C127.145 14.4297 127.122 14.4238 127.092 14.4121C127.051 14.4062 126.981 14.418 126.881 14.4473C126.782 14.4766 126.668 14.5117 126.539 14.5527C126.41 14.5879 126.269 14.623 126.117 14.6582C125.97 14.6875 125.827 14.7021 125.686 14.7021C125.592 14.7021 125.502 14.7168 125.414 14.7461C125.332 14.7695 125.258 14.8018 125.194 14.8428C125.129 14.8838 125.077 14.9248 125.036 14.9658C125.001 15.0068 124.983 15.0449 124.983 15.0801C124.983 15.2852 125.018 15.4492 125.088 15.5723C125.165 15.6953 125.247 15.7891 125.335 15.8535C125.44 15.9297 125.557 15.9824 125.686 16.0117C125.833 16.0762 125.973 16.1201 126.108 16.1436C126.243 16.1611 126.378 16.1699 126.512 16.1699C126.735 16.1699 126.966 16.1523 127.207 16.1172C127.453 16.082 127.731 16.0645 128.042 16.0645C128.188 16.0645 128.311 16.082 128.411 16.1172C128.516 16.1523 128.628 16.1699 128.745 16.1699C128.868 16.1699 128.991 16.1582 129.114 16.1348C129.237 16.1113 129.354 16.085 129.465 16.0557C129.577 16.0264 129.682 16 129.782 15.9766C129.887 15.9531 129.984 15.9414 130.072 15.9414C130.3 15.9414 130.464 16.0205 130.564 16.1787C130.67 16.3311 130.746 16.5684 130.793 16.8906ZM127.391 12.8477C127.403 12.8184 127.412 12.7861 127.418 12.751C127.423 12.7158 127.426 12.6807 127.426 12.6455C127.426 12.4697 127.409 12.3145 127.374 12.1797C127.344 12.0391 127.306 11.9219 127.259 11.8281C127.218 11.7285 127.171 11.6553 127.119 11.6084C127.066 11.5557 127.019 11.5293 126.978 11.5293C126.867 11.5293 126.7 11.5527 126.477 11.5996C126.254 11.6406 126.029 11.6934 125.8 11.7578C125.572 11.8223 125.364 11.8926 125.176 11.9688C124.995 12.0449 124.883 12.1152 124.842 12.1797C124.813 12.2266 124.793 12.2969 124.781 12.3906C124.769 12.4785 124.763 12.5811 124.763 12.6982C124.763 12.9443 124.778 13.1348 124.807 13.2695C124.842 13.4043 124.901 13.4717 124.983 13.4717C125.036 13.4717 125.094 13.4629 125.159 13.4453C125.223 13.4277 125.285 13.4102 125.343 13.3926C125.408 13.3691 125.463 13.3486 125.51 13.3311C125.563 13.3135 125.604 13.3018 125.633 13.2959C125.762 13.2725 125.921 13.2549 126.108 13.2432C126.296 13.2314 126.477 13.2139 126.653 13.1904C126.835 13.1611 126.993 13.123 127.128 13.0762C127.268 13.0234 127.356 12.9473 127.391 12.8477ZM140.433 13.6562C140.433 13.6914 140.436 13.7236 140.442 13.7529C140.447 13.7822 140.45 13.8145 140.45 13.8496C140.45 13.9844 140.433 14.1221 140.398 14.2627C140.368 14.4033 140.33 14.5439 140.283 14.6846C140.236 14.8252 140.19 14.9688 140.143 15.1152C140.096 15.2559 140.061 15.3994 140.037 15.5459C140.026 15.6045 140.02 15.6719 140.02 15.748C140.02 15.8184 140.02 15.8916 140.02 15.9678C140.02 16.0439 140.017 16.1172 140.011 16.1875C140.005 16.2578 139.996 16.3193 139.985 16.3721C139.955 16.5186 139.897 16.6768 139.809 16.8467C139.721 17.0166 139.636 17.1777 139.554 17.3301C139.431 17.5586 139.319 17.752 139.22 17.9102C139.126 18.0625 139.012 18.1885 138.877 18.2881C138.748 18.3818 138.584 18.4492 138.385 18.4902C138.186 18.5312 137.922 18.5518 137.594 18.5518C137.313 18.5518 137.028 18.5371 136.741 18.5078C136.454 18.4785 136.176 18.4375 135.906 18.3848C135.637 18.332 135.385 18.2734 135.151 18.209C134.916 18.1387 134.714 18.0654 134.544 17.9893C134.345 17.9014 134.187 17.8076 134.069 17.708C133.952 17.6084 133.85 17.4883 133.762 17.3477C133.68 17.207 133.604 17.0342 133.533 16.8291C133.463 16.6182 133.375 16.3574 133.27 16.0469C133.217 15.8887 133.161 15.7334 133.103 15.5811C133.05 15.4287 133.003 15.2764 132.962 15.124C132.921 14.9658 132.889 14.8105 132.865 14.6582C132.842 14.5 132.833 14.3389 132.839 14.1748C132.839 14.0811 132.845 13.9727 132.857 13.8496C132.874 13.7207 132.895 13.5947 132.918 13.4717C132.942 13.3428 132.968 13.2227 132.997 13.1113C133.027 12.9941 133.059 12.9004 133.094 12.8301C133.123 12.7598 133.155 12.7012 133.191 12.6543C133.232 12.6074 133.27 12.5605 133.305 12.5137C133.34 12.4668 133.369 12.4199 133.393 12.373C133.416 12.3262 133.428 12.2676 133.428 12.1973C133.428 12.1445 133.422 12.1006 133.41 12.0654C133.399 12.0244 133.384 11.9863 133.366 11.9512C133.349 11.916 133.334 11.8809 133.322 11.8457C133.311 11.8047 133.305 11.7607 133.305 11.7139C133.305 11.7197 133.317 11.6875 133.34 11.6172C133.369 11.5469 133.407 11.4619 133.454 11.3623C133.501 11.2568 133.557 11.1455 133.621 11.0283C133.692 10.9053 133.765 10.7939 133.841 10.6943C133.923 10.5889 134.011 10.501 134.105 10.4307C134.204 10.3604 134.304 10.3252 134.403 10.3252H134.606H134.676C134.758 10.3252 134.858 10.334 134.975 10.3516C135.092 10.3691 135.218 10.3867 135.353 10.4043C135.493 10.4219 135.64 10.4395 135.792 10.457C135.95 10.4746 136.106 10.4834 136.258 10.4834C136.528 10.4834 136.8 10.4746 137.075 10.457C137.351 10.4395 137.611 10.4307 137.858 10.4307C138.209 10.4307 138.476 10.4746 138.657 10.5625C138.845 10.6504 138.983 10.7617 139.07 10.8965C139.164 11.0254 139.229 11.1689 139.264 11.3271C139.305 11.4795 139.358 11.626 139.422 11.7666C139.469 11.8721 139.551 11.9863 139.668 12.1094C139.785 12.2266 139.891 12.3701 139.985 12.54C140.031 12.6221 140.061 12.7217 140.072 12.8389C140.084 12.9561 140.113 13.0586 140.16 13.1465C140.207 13.2754 140.26 13.375 140.319 13.4453C140.383 13.5098 140.421 13.5801 140.433 13.6562ZM138.332 14.1045C138.344 13.9873 138.356 13.832 138.367 13.6387C138.379 13.4395 138.385 13.2461 138.385 13.0586C138.385 12.9648 138.373 12.8535 138.35 12.7246C138.326 12.5898 138.277 12.4639 138.2 12.3467C138.124 12.2236 138.013 12.1211 137.866 12.0391C137.726 11.9512 137.538 11.9072 137.304 11.9072C137.157 11.9072 137.005 11.9219 136.847 11.9512C136.694 11.9805 136.545 11.9951 136.399 11.9951C136.328 11.9951 136.255 11.9922 136.179 11.9863C136.103 11.9805 136.027 11.9775 135.95 11.9775C135.745 11.9775 135.578 12.0215 135.449 12.1094C135.32 12.1914 135.221 12.3057 135.151 12.4521C135.08 12.5928 135.03 12.7598 135.001 12.9531C134.978 13.1465 134.966 13.3516 134.966 13.5684C134.966 13.8496 134.975 14.084 134.992 14.2715C135.016 14.459 135.051 14.6143 135.098 14.7373C135.145 14.8604 135.203 14.96 135.274 15.0361C135.344 15.1064 135.432 15.168 135.537 15.2207C135.631 15.2559 135.707 15.2734 135.766 15.2734C135.824 15.2734 135.898 15.291 135.986 15.3262C136.038 15.3438 136.079 15.3701 136.109 15.4053C136.138 15.4346 136.164 15.4668 136.188 15.502C136.217 15.5312 136.246 15.5576 136.276 15.5811C136.311 15.6045 136.352 15.6162 136.399 15.6162C136.44 15.6162 136.484 15.6133 136.53 15.6074C136.583 15.6016 136.636 15.5986 136.689 15.5986C136.759 15.5986 136.82 15.6104 136.873 15.6338C136.926 15.6572 136.97 15.6865 137.005 15.7217C137.046 15.751 137.081 15.7773 137.111 15.8008C137.146 15.8242 137.181 15.8359 137.216 15.8359C137.234 15.8301 137.292 15.8008 137.392 15.748C137.497 15.6953 137.609 15.6367 137.726 15.5723C137.843 15.502 137.948 15.4375 138.042 15.3789C138.142 15.3203 138.194 15.2852 138.2 15.2734C138.23 15.2266 138.25 15.1533 138.262 15.0537C138.279 14.9482 138.291 14.8369 138.297 14.7197C138.309 14.6025 138.315 14.4883 138.315 14.377C138.32 14.2656 138.326 14.1748 138.332 14.1045Z" fill="black"/>
</g>
<path d="M37.756 36.484V28.612C37.756 28.532 37.792 28.464 37.864 28.408C37.936 28.352 38.028 28.324 38.14 28.324C38.244 28.324 38.332 28.352 38.404 28.408C38.476 28.464 38.512 28.532 38.512 28.612V29.164C38.656 28.908 38.868 28.692 39.148 28.516C39.428 28.34 39.752 28.252 40.12 28.252C40.712 28.252 41.22 28.472 41.644 28.912C42.068 29.352 42.28 29.88 42.28 30.496V31.804C42.28 32.404 42.064 32.936 41.632 33.4C41.208 33.856 40.716 34.084 40.156 34.084C39.804 34.084 39.48 33.996 39.184 33.82C38.888 33.636 38.672 33.416 38.536 33.16V36.484C38.536 36.556 38.496 36.624 38.416 36.688C38.344 36.752 38.252 36.784 38.14 36.784C38.036 36.784 37.944 36.752 37.864 36.688C37.792 36.624 37.756 36.556 37.756 36.484ZM38.536 32.176C38.536 32.392 38.684 32.644 38.98 32.932C39.284 33.22 39.628 33.364 40.012 33.364C40.404 33.364 40.748 33.204 41.044 32.884C41.348 32.564 41.5 32.204 41.5 31.804V30.496C41.5 30.104 41.348 29.752 41.044 29.44C40.748 29.128 40.396 28.972 39.988 28.972C39.604 28.972 39.264 29.112 38.968 29.392C38.68 29.672 38.536 30.04 38.536 30.496V32.176ZM49.7485 33.688V28.612C49.7485 28.532 49.7845 28.464 49.8565 28.408C49.9285 28.352 50.0205 28.324 50.1325 28.324C50.2365 28.324 50.3245 28.352 50.3965 28.408C50.4685 28.464 50.5045 28.532 50.5045 28.612V29.2C50.6485 28.936 50.8605 28.712 51.1405 28.528C51.4205 28.344 51.7445 28.252 52.1125 28.252H52.5325C52.6125 28.252 52.6845 28.288 52.7485 28.36C52.8125 28.432 52.8445 28.516 52.8445 28.612C52.8445 28.708 52.8125 28.792 52.7485 28.864C52.6845 28.936 52.6125 28.972 52.5325 28.972H52.1125C51.6965 28.972 51.3285 29.136 51.0085 29.464C50.6885 29.784 50.5285 30.204 50.5285 30.724V33.688C50.5285 33.768 50.4885 33.84 50.4085 33.904C50.3365 33.968 50.2445 34 50.1325 34C50.0285 34 49.9365 33.968 49.8565 33.904C49.7845 33.84 49.7485 33.768 49.7485 33.688ZM59.4622 31.804V30.496C59.4622 29.888 59.6862 29.364 60.1342 28.924C60.5822 28.476 61.1142 28.252 61.7302 28.252C62.3462 28.252 62.8822 28.472 63.3382 28.912C63.7942 29.352 64.0222 29.88 64.0222 30.496V31.804C64.0222 32.404 63.7902 32.936 63.3262 33.4C62.8702 33.856 62.3382 34.084 61.7302 34.084C61.1302 34.084 60.6022 33.856 60.1462 33.4C59.6902 32.936 59.4622 32.404 59.4622 31.804ZM60.2422 31.804C60.2422 32.212 60.3862 32.576 60.6742 32.896C60.9702 33.208 61.3222 33.364 61.7302 33.364C62.1462 33.364 62.5022 33.208 62.7982 32.896C63.0942 32.576 63.2422 32.212 63.2422 31.804V30.496C63.2422 30.104 63.0902 29.752 62.7862 29.44C62.4902 29.128 62.1382 28.972 61.7302 28.972C61.3222 28.972 60.9702 29.128 60.6742 29.44C60.3862 29.752 60.2422 30.104 60.2422 30.496V31.804ZM71.2675 31.804V30.496C71.2675 29.88 71.4755 29.352 71.8915 28.912C72.3155 28.472 72.8235 28.252 73.4155 28.252C73.7835 28.252 74.1035 28.34 74.3755 28.516C74.6555 28.692 74.8635 28.908 74.9995 29.164V25.132C74.9995 25.052 75.0395 24.984 75.1195 24.928C75.1995 24.872 75.2955 24.844 75.4075 24.844C75.5195 24.844 75.6075 24.872 75.6715 24.928C75.7435 24.984 75.7795 25.052 75.7795 25.132V33.688C75.7795 33.768 75.7435 33.84 75.6715 33.904C75.5995 33.968 75.5115 34 75.4075 34C75.3115 34 75.2235 33.968 75.1435 33.904C75.0715 33.84 75.0355 33.768 75.0355 33.688V33.16C74.8995 33.416 74.6795 33.636 74.3755 33.82C74.0795 33.996 73.7515 34.084 73.3915 34.084C72.8235 34.084 72.3275 33.856 71.9035 33.4C71.4795 32.936 71.2675 32.404 71.2675 31.804ZM72.0475 31.804C72.0475 32.204 72.1955 32.564 72.4915 32.884C72.7875 33.204 73.1355 33.364 73.5355 33.364C73.9195 33.364 74.2595 33.22 74.5555 32.932C74.8515 32.644 74.9995 32.392 74.9995 32.176V30.496C74.9995 30.04 74.8515 29.672 74.5555 29.392C74.2675 29.112 73.9315 28.972 73.5475 28.972C73.1395 28.972 72.7875 29.128 72.4915 29.44C72.1955 29.752 72.0475 30.104 72.0475 30.496V31.804ZM83.416 31.828V28.624C83.416 28.552 83.452 28.484 83.524 28.42C83.604 28.356 83.7 28.324 83.812 28.324C83.908 28.324 83.996 28.356 84.076 28.42C84.156 28.484 84.196 28.552 84.196 28.624V31.828C84.196 32.228 84.344 32.584 84.64 32.896C84.936 33.208 85.288 33.364 85.696 33.364C86.104 33.364 86.456 33.208 86.752 32.896C87.048 32.584 87.196 32.228 87.196 31.828V28.612C87.196 28.532 87.236 28.464 87.316 28.408C87.396 28.352 87.488 28.324 87.592 28.324C87.696 28.324 87.784 28.352 87.856 28.408C87.936 28.464 87.976 28.532 87.976 28.612V31.828C87.976 32.428 87.748 32.956 87.292 33.412C86.844 33.86 86.312 34.084 85.696 34.084C85.072 34.084 84.536 33.86 84.088 33.412C83.64 32.956 83.416 32.428 83.416 31.828ZM95.4051 31.804V30.52C95.4051 29.848 95.6011 29.304 95.9931 28.888C96.3851 28.464 96.9611 28.252 97.7211 28.252C98.2011 28.252 98.6011 28.34 98.9211 28.516C99.2491 28.684 99.4131 28.856 99.4131 29.032C99.4131 29.12 99.3771 29.208 99.3051 29.296C99.2331 29.376 99.1531 29.416 99.0651 29.416C99.0171 29.416 98.9411 29.38 98.8371 29.308C98.7411 29.236 98.6011 29.164 98.4171 29.092C98.2331 29.012 98.0131 28.972 97.7571 28.972C97.2451 28.972 96.8531 29.108 96.5811 29.38C96.3171 29.652 96.1851 30.032 96.1851 30.52V31.804C96.1851 32.3 96.3171 32.684 96.5811 32.956C96.8531 33.228 97.2491 33.364 97.7691 33.364C98.0411 33.364 98.2691 33.328 98.4531 33.256C98.6451 33.176 98.7891 33.1 98.8851 33.028C98.9891 32.948 99.0691 32.908 99.1251 32.908C99.2291 32.908 99.3131 32.948 99.3771 33.028C99.4491 33.108 99.4851 33.196 99.4851 33.292C99.4851 33.476 99.3171 33.656 98.9811 33.832C98.6451 34 98.2291 34.084 97.7331 34.084C96.9651 34.084 96.3851 33.876 95.9931 33.46C95.6011 33.044 95.4051 32.492 95.4051 31.804ZM106.699 32.236V25.912C106.699 25.832 106.739 25.764 106.819 25.708C106.899 25.652 106.987 25.624 107.083 25.624C107.187 25.624 107.279 25.652 107.359 25.708C107.439 25.764 107.479 25.832 107.479 25.912V28.324H109.027C109.107 28.324 109.171 28.356 109.219 28.42C109.275 28.484 109.303 28.56 109.303 28.648C109.303 28.736 109.275 28.812 109.219 28.876C109.171 28.94 109.107 28.972 109.027 28.972H107.479V32.236C107.479 32.628 107.559 32.904 107.719 33.064C107.887 33.216 108.179 33.292 108.595 33.292H108.931C109.035 33.292 109.119 33.328 109.183 33.4C109.255 33.464 109.291 33.544 109.291 33.64C109.291 33.736 109.255 33.82 109.183 33.892C109.119 33.964 109.035 34 108.931 34H108.595C107.331 34 106.699 33.412 106.699 32.236ZM116.465 26.5C116.361 26.396 116.309 26.276 116.309 26.14C116.309 26.004 116.361 25.888 116.465 25.792C116.569 25.696 116.697 25.648 116.849 25.648C116.993 25.648 117.113 25.696 117.209 25.792C117.313 25.888 117.365 26.004 117.365 26.14C117.365 26.276 117.313 26.396 117.209 26.5C117.113 26.596 116.993 26.644 116.849 26.644C116.697 26.644 116.569 26.596 116.465 26.5ZM116.465 33.688V28.612C116.465 28.532 116.501 28.464 116.573 28.408C116.645 28.352 116.737 28.324 116.849 28.324C116.961 28.324 117.053 28.352 117.125 28.408C117.205 28.464 117.245 28.532 117.245 28.612V33.688C117.245 33.768 117.205 33.84 117.125 33.904C117.045 33.968 116.953 34 116.849 34C116.745 34 116.653 33.968 116.573 33.904C116.501 33.84 116.465 33.768 116.465 33.688ZM124.714 31.804V30.496C124.714 29.888 124.938 29.364 125.386 28.924C125.834 28.476 126.366 28.252 126.982 28.252C127.598 28.252 128.134 28.472 128.59 28.912C129.046 29.352 129.274 29.88 129.274 30.496V31.804C129.274 32.404 129.042 32.936 128.578 33.4C128.122 33.856 127.59 34.084 126.982 34.084C126.382 34.084 125.854 33.856 125.398 33.4C124.942 32.936 124.714 32.404 124.714 31.804ZM125.494 31.804C125.494 32.212 125.638 32.576 125.926 32.896C126.222 33.208 126.574 33.364 126.982 33.364C127.398 33.364 127.754 33.208 128.05 32.896C128.346 32.576 128.494 32.212 128.494 31.804V30.496C128.494 30.104 128.342 29.752 128.038 29.44C127.742 29.128 127.39 28.972 126.982 28.972C126.574 28.972 126.222 29.128 125.926 29.44C125.638 29.752 125.494 30.104 125.494 30.496V31.804ZM136.735 33.688V28.612C136.735 28.524 136.771 28.456 136.843 28.408C136.915 28.352 137.007 28.324 137.119 28.324C137.215 28.324 137.299 28.352 137.371 28.408C137.443 28.464 137.479 28.532 137.479 28.612V29.164C137.615 28.908 137.823 28.692 138.103 28.516C138.383 28.34 138.711 28.252 139.087 28.252C139.663 28.252 140.163 28.472 140.587 28.912C141.011 29.352 141.223 29.88 141.223 30.496V33.688C141.223 33.784 141.183 33.86 141.103 33.916C141.023 33.972 140.931 34 140.827 34C140.731 34 140.643 33.972 140.563 33.916C140.483 33.86 140.443 33.784 140.443 33.688V30.496C140.443 30.104 140.295 29.752 139.999 29.44C139.703 29.128 139.351 28.972 138.943 28.972C138.567 28.972 138.235 29.112 137.947 29.392C137.659 29.672 137.515 30.04 137.515 30.496V33.688C137.515 33.768 137.475 33.84 137.395 33.904C137.315 33.968 137.223 34 137.119 34C137.007 34 136.915 33.968 136.843 33.904C136.771 33.84 136.735 33.768 136.735 33.688Z" fill="black"/>
<rect width="50" height="2" transform="translate(32 22)" fill="black"/>
<rect width="50.4659" height="2.00001" transform="matrix(0.999895 0.0144984 0.0149585 -0.999888 90.9134 23.9998)" fill="black"/>
<path d="M154.288 13.8027C154.288 13.8027 155.041 17.0187 155.23 19.162C155.426 21.386 155.459 22.6867 155.23 24.904C154.986 27.2789 154.648 28.5886 153.948 30.761C153.22 33.0188 151.565 36.1202 151.565 36.1202L144 36.1203C144 36.1203 145.638 35.4476 146.592 34.7039C147.8 33.7607 148.45 33.0535 149.366 31.5649C150.573 29.6066 150.886 28.0725 151.565 25.6314C152.242 23.1987 152.517 21.7503 152.822 19.162C153.066 17.0918 153.136 13.8027 153.136 13.8027L154.288 13.8027Z" fill="#828B79" stroke="black" stroke-linejoin="round"/>
<path d="M153.869 8.78277C153.869 8.78277 154.678 7.5746 155.283 6.96253C156.24 5.99359 156.857 5.4647 158.005 5.1844C159.149 4.90523 160.963 5.5672 160.963 5.5672C161.856 6.11846 162.329 6.67145 162.927 7.78748C163.732 9.29132 164 12.4194 164 12.4194C164 12.4194 163.055 11.0832 162.325 10.5054C161.548 9.89122 161.054 9.62863 160.178 9.47182C159.105 9.27973 158.479 9.57828 157.429 9.95416C156.356 10.3382 154.785 11.4241 154.785 11.4241C154.785 11.4241 157.417 11.1607 158.974 11.9218C160.273 12.5569 161.15 12.9291 162.01 14.4866C163.101 16.4589 163.101 18.3178 162.927 20.8411C162.742 23.5235 160.963 27.1192 160.963 27.1192C160.963 27.1192 160.603 24.1982 160.178 22.4106C159.799 20.8179 159.592 19.8909 158.974 18.4677C158.325 16.9747 157.926 16.069 156.932 15.0608C156.323 14.4435 155.23 13.8358 155.23 13.8358H153.319C153.319 13.8358 152.146 14.3309 151.277 15.0608C150.212 15.9561 148.738 17.7787 148.738 17.7787C148.738 17.7787 147.755 19.5613 147.22 21.4153C146.684 23.2694 146.251 26.4684 146.251 26.4684C146.251 26.4684 144.97 22.9039 144.89 20.4201C144.821 18.2937 144.823 16.8869 145.571 15.0608C146.222 13.4707 146.866 12.7357 148.005 11.9218C149.599 10.7829 152.534 11.4241 152.534 11.4241L150.309 9.95416C150.309 9.95416 149.363 9.54757 148.738 9.47182C147.858 9.3651 147.322 9.35759 146.487 9.77806C145.535 10.2574 144.367 11.9218 144.367 11.9218C144.367 11.9218 144.809 9.1434 145.571 7.78748C146.191 6.68319 146.655 6.1072 147.56 5.5672C148.559 4.97145 149.256 4.84701 150.309 5.1844C151.276 5.49424 151.743 6.09108 152.534 6.96253C153.103 7.58985 153.869 8.78277 153.869 8.78277Z" fill="#60D85D" stroke="black" stroke-linejoin="round"/>
<path d="M19.712 13.8027C19.712 13.8027 18.9585 17.0187 18.7696 19.162C18.5736 21.386 18.5411 22.6867 18.7696 24.904C19.0144 27.2789 19.3519 28.5886 20.0524 30.761C20.7803 33.0188 22.4346 36.1202 22.4346 36.1202L30 36.1203C30 36.1203 28.3616 35.4476 27.4084 34.7039C26.1996 33.7607 25.5505 33.0535 24.6335 31.5649C23.4273 29.6066 23.1139 28.0725 22.4346 25.6314C21.7576 23.1987 21.4827 21.7503 21.178 19.162C20.9343 17.0918 20.8639 13.8027 20.8639 13.8027L19.712 13.8027Z" fill="#828B79" stroke="black" stroke-linejoin="round"/>
<path d="M20.1309 8.78277C20.1309 8.78277 19.3221 7.5746 18.7173 6.96253C17.7597 5.99359 17.1433 5.4647 15.9948 5.1844C14.8508 4.90523 13.0366 5.5672 13.0366 5.5672C12.1437 6.11846 11.6708 6.67145 11.0733 7.78748C10.2681 9.29132 9.99999 12.4194 9.99999 12.4194C9.99999 12.4194 10.9451 11.0832 11.6754 10.5054C12.4516 9.89122 12.9459 9.62863 13.822 9.47182C14.8951 9.27973 15.5205 9.57828 16.5707 9.95416C17.6436 10.3382 19.2147 11.4241 19.2147 11.4241C19.2147 11.4241 16.5825 11.1607 15.0262 11.9218C13.7274 12.5569 12.8504 12.9291 11.9895 14.4866C10.8992 16.4589 10.8993 18.3178 11.0733 20.8411C11.2583 23.5235 13.0366 27.1192 13.0366 27.1192C13.0366 27.1192 13.3966 24.1982 13.822 22.4106C14.201 20.8179 14.4075 19.8909 15.0262 18.4677C15.6752 16.9747 16.0739 16.069 17.0681 15.0608C17.6767 14.4435 18.7696 13.8358 18.7696 13.8358H20.6806C20.6806 13.8358 21.8539 14.3309 22.7225 15.0608C23.788 15.9561 25.2618 17.7787 25.2618 17.7787C25.2618 17.7787 26.2446 19.5613 26.7801 21.4153C27.3156 23.2694 27.7487 26.4684 27.7487 26.4684C27.7487 26.4684 29.0295 22.9039 29.1099 20.4201C29.1788 18.2937 29.1774 16.8869 28.4293 15.0608C27.7779 13.4707 27.1336 12.7357 25.9948 11.9218C24.4013 10.7829 21.466 11.4241 21.466 11.4241L23.6911 9.95416C23.6911 9.95416 24.6371 9.54757 25.2618 9.47182C26.1417 9.3651 26.6782 9.35759 27.5131 9.77806C28.4649 10.2574 29.6335 11.9218 29.6335 11.9218C29.6335 11.9218 29.1912 9.1434 28.4293 7.78748C27.8088 6.68319 27.3447 6.1072 26.4398 5.5672C25.4414 4.97145 24.7444 4.84701 23.6911 5.1844C22.7238 5.49424 22.2568 6.09108 21.466 6.96253C20.8967 7.58985 20.1309 8.78277 20.1309 8.78277Z" fill="#60D85D" stroke="black" stroke-linejoin="round"/>
<defs>
<filter id="filter0_d" x="28" y="5.79004" width="116.45" height="24.1631" filterUnits="userSpaceOnUse" color-interpolation-filters="sRGB">
<feFlood flood-opacity="0" result="BackgroundImageFix"/>
<feColorMatrix in="SourceAlpha" type="matrix" values="0 0 0 0 0 0 0 0 0 0 0 0 0 0 0 0 0 0 127 0"/>
<feOffset dy="4"/>
<feGaussianBlur stdDeviation="2"/>
<feColorMatrix type="matrix" values="0 0 0 0 0 0 0 0 0 0 0 0 0 0 0 0 0 0 0.25 0"/>
<feBlend mode="normal" in2="BackgroundImageFix" result="effect1_dropShadow"/>
<feBlend mode="normal" in="SourceGraphic" in2="effect1_dropShadow" result="shape"/>
</filter>
</defs>
</svg>
