<svg width="25" height="25" viewBox="0 0 25 25" fill="none" xmlns="http://www.w3.org/2000/svg">
<path fill-rule="evenodd" clip-rule="evenodd" d="M12 23C17.5228 23 22 18.5228 22 13C22 7.47715 17.5228 3 12 3C6.47715 3 2 7.47715 2 13C2 14.9807 2.57586 16.8269 3.56928 18.3803L3.5 18.5L1.62503 21.506L5.41155 20.523C7.17111 22.0652 9.47639 23 12 23Z" fill="black"/>
<path d="M3.56928 18.3803L4.21836 18.7561C4.35888 18.5134 4.35223 18.2125 4.20113 17.9763L3.56928 18.3803ZM3.5 18.5L4.13636 18.8969C4.14072 18.8899 4.14496 18.8829 4.14908 18.8758L3.5 18.5ZM1.62503 21.506L0.988671 21.1091C0.826229 21.3695 0.838872 21.7027 1.02059 21.95C1.2023 22.1974 1.51641 22.3091 1.8135 22.232L1.62503 21.506ZM5.41155 20.523L5.9059 19.959C5.71914 19.7953 5.46346 19.7346 5.22308 19.797L5.41155 20.523ZM21.25 13C21.25 18.1086 17.1086 22.25 12 22.25V23.75C17.9371 23.75 22.75 18.9371 22.75 13H21.25ZM12 3.75C17.1086 3.75 21.25 7.89137 21.25 13H22.75C22.75 7.06294 17.9371 2.25 12 2.25V3.75ZM2.75 13C2.75 7.89137 6.89137 3.75 12 3.75V2.25C6.06294 2.25 1.25 7.06294 1.25 13H2.75ZM4.20113 17.9763C3.28255 16.5399 2.75 14.8333 2.75 13H1.25C1.25 15.1281 1.86916 17.1139 2.93744 18.7844L4.20113 17.9763ZM4.14908 18.8758L4.21836 18.7561L2.92021 18.0046L2.85092 18.1242L4.14908 18.8758ZM2.26139 21.9029L4.13636 18.8969L2.86364 18.1031L0.988671 21.1091L2.26139 21.9029ZM5.22308 19.797L1.43656 20.7801L1.8135 22.232L5.60002 21.2489L5.22308 19.797ZM12 22.25C9.66513 22.25 7.53393 21.3859 5.9059 19.959L4.9172 21.087C6.80829 22.7445 9.28764 23.75 12 23.75V22.25Z" fill="black"/>
<path d="M13.897 14.5045C14.8908 14.6153 20.08 17.7092 13.9508 18.5353C9.83412 18.0764 6.40257 14.0374 6.83085 10.1952C7.25912 6.35303 9.81396 5.99989 10.8616 10.1414C6.60929 12.1829 13.5646 17.4861 13.897 14.5045Z" fill="white"/>
</svg>
